<?xml version="1.0" encoding="utf-8"?>
<!-- Generator: Adobe Illustrator 15.0.2, SVG Export Plug-In . SVG Version: 6.00 Build 0)  -->
<!DOCTYPE svg PUBLIC "-//W3C//DTD SVG 1.1//EN" "http://www.w3.org/Graphics/SVG/1.1/DTD/svg11.dtd">
<svg version="1.1" xmlns="http://www.w3.org/2000/svg" xmlns:xlink="http://www.w3.org/1999/xlink" x="0px" y="0px"
	 width="658.73px" height="429.365px" viewBox="0 0 658.73 429.365" enable-background="new 0 0 658.73 429.365"
	 xml:space="preserve">
<g id="lines">
	
		<line fill="#FFFFFF" stroke="#000" stroke-width="2" stroke-miterlimit="10" x1="268.793" y1="12.556" x2="268.793" y2="60.556"/>
	<polyline fill="none" stroke="#000" stroke-width="2" stroke-miterlimit="10" points="243.993,101.956 204.793,123.756 
		204.793,198.556 243.993,221.668 	"/>
	<polyline fill="none" stroke="#000" stroke-width="2" stroke-miterlimit="10" points="204.793,198.556 139.793,234.956 
		139.793,311.556 183.765,335.128 	"/>
	<polygon fill="none" stroke="#000" stroke-width="2.0147" stroke-miterlimit="10" points="75.715,198.097 140.101,235.038 
		139.793,311.556 75.331,347.928 10.945,310.988 11.137,236.071 	"/>
	<line fill="none" stroke="#000" stroke-width="2" stroke-miterlimit="10" x1="75.523" y1="214.411" x2="25.052" y2="243.5"/>
	<line fill="none" stroke="#000" stroke-width="2" stroke-miterlimit="10" x1="25.574" y1="301.861" x2="76.001" y2="331.026"/>
	<line fill="none" stroke="#000" stroke-width="2" stroke-miterlimit="10" x1="126.283" y1="301.394" x2="126.327" y2="243.14"/>
	<polyline fill="none" stroke="#000" stroke-width="2" stroke-miterlimit="10" points="294.347,221.867 332.968,199.125 
		397.793,236.049 397.793,310.556 333.479,347.357 268.793,310.094 268.793,265.556 	"/>
	<polyline fill="none" stroke="#000" stroke-width="2" stroke-miterlimit="10" points="440.239,334.368 397.793,310.556 
		397.793,235.556 461.635,199.125 526.064,235.808 565.708,213.013 	"/>
	
		<line fill="none" stroke="#000" stroke-width="2" stroke-miterlimit="10" x1="518.793" y1="284.556" x2="518.793" y2="231.556"/>
	
		<line fill="none" stroke="#000" stroke-width="2" stroke-miterlimit="10" x1="532.793" y1="284.556" x2="532.793" y2="231.556"/>
	<line fill="none" stroke="#000" stroke-width="2" stroke-miterlimit="10" x1="167.581" y1="95.798" x2="211.128" y2="120.233"/>
	
		<line fill="none" stroke="#000" stroke-width="2" stroke-miterlimit="10" x1="161.062" y1="107.331" x2="204.793" y2="132.569"/>
	
		<line fill="none" stroke="#000" stroke-width="2" stroke-miterlimit="10" x1="461.742" y1="214.632" x2="410.765" y2="243.881"/>
	
		<line fill="none" stroke="#000" stroke-width="2.1312" stroke-miterlimit="10" x1="215.954" y1="193.748" x2="216.992" y2="195.588"/>
	
		<line fill="none" stroke="#000" stroke-width="2.1312" stroke-miterlimit="10" x1="227.144" y1="184.4" x2="231.334" y2="192.78"/>
	
		<line fill="none" stroke="#000" stroke-width="2.1312" stroke-miterlimit="10" x1="236.236" y1="173.665" x2="245.823" y2="193.101"/>
</g>
<g id="text">
	<text transform="matrix(1 0 0 1 445.5562 367.9717)" font-family="'Arial'" font-size="50">S</text>
	<text transform="matrix(1 0 0 1 121.7471 107.3315)" font-family="'Arial'" font-size="50">O</text>
	<text transform="matrix(1 0 0 1 249.3477 107.3315)" font-family="'Arial'" font-size="50">O</text>
	<text transform="matrix(1 0 0 1 571.7466 218.4424)" font-family="'Arial'" font-size="50">O</text>
	<text transform="matrix(1 0 0 1 507.4614 331.0273)" font-family="'Arial'" font-size="50">O</text>
	<text transform="matrix(1 0 0 1 443.7563 411.1572)" font-family="'Arial'" font-size="50">H</text>
	<text transform="matrix(1 0 0 1 611.2173 218.4424)" font-family="'Arial'" font-size="50">H</text>
	<text transform="matrix(1 0 0 1 250.7393 181.1411)" font-family="'Arial'" font-size="50">H</text>
	<text transform="matrix(1 0 0 1 250.7393 258.0557)" font-family="'Arial'" font-size="50">N</text>
	<text transform="matrix(1 0 0 1 188.041 366.7861)" font-family="'Arial'" font-size="50">Cl</text>
</g>
</svg>
