<?xml version="1.0" encoding="UTF-8" standalone="no"?>
<!-- Created with Inkscape (http://www.inkscape.org/) -->

<svg
   width="145.21857mm"
   height="166.76688mm"
   viewBox="0 0 145.21857 166.76688"
   version="1.1"
   id="svg1"
   xml:space="preserve"
   xmlns="http://www.w3.org/2000/svg"
   xmlns:svg="http://www.w3.org/2000/svg"><defs
     id="defs1" /><g
     id="layer1"
     transform="translate(-34.995385,-62.35137)"><path
       style="fill:#ffffff;fill-opacity:1;stroke-width:0.264583"
       id="path2"
       d="m 14.724,134.06587 -47.8043,-28.79293 1.033261,-55.796204 48.837562,-27.003272 47.8043,28.792933 -1.033262,55.796203 z"
       transform="matrix(1.4723006,-0.02569909,0.02569909,1.4723006,82.427405,30.784649)" /><path
       style="fill:#000000;stroke-width:0.636935"
       d="m 71.518437,208.29308 c -19.860565,-11.4746 -36.179548,-20.93306 -36.264405,-21.01881 -0.09224,-0.0932 -0.175268,-16.91923 -0.206466,-41.84424 l -0.05218,-41.68832 36.122799,-20.695171 36.122785,-20.695167 0.78362,0.473975 c 0.43098,0.260686 16.78482,9.706596 36.34185,20.990909 19.55702,11.284315 35.56831,20.526084 35.58062,20.537264 0.0123,0.0112 0.0774,18.78951 0.14465,41.72963 l 0.12224,41.7093 -36.03334,20.644 c -19.81833,11.35419 -36.15005,20.66099 -36.2927,20.68176 -0.14265,0.0208 -16.508906,-9.35054 -36.369472,-20.82513 z m 71.707713,-0.96496 c 19.35,-11.08324 35.27191,-20.24033 35.38201,-20.34908 0.15433,-0.15243 0.16419,-9.53704 0.043,-40.97084 -0.0864,-22.42521 -0.21444,-40.82462 -0.28445,-40.88757 -0.07,-0.063 -16.10681,-9.336449 -35.63736,-20.607779 L 107.2193,64.019526 71.736449,84.347245 36.253591,104.67496 l 0.09096,31.61592 c 0.05003,17.38876 0.136077,35.79637 0.19122,40.90581 l 0.100258,9.28989 35.496263,20.49533 c 19.522945,11.27243 35.589798,20.49584 35.704138,20.49645 0.11434,6.1e-4 16.03971,-9.06699 35.38972,-20.15024 z m -69.811287,-2.4211 -34.37494,-19.84676 -0.102009,-20.54182 c -0.0561,-11.29801 -0.112981,-29.0744 -0.126392,-39.50309 l -0.02438,-18.96126 34.218363,-19.604849 34.218355,-19.604849 2.81443,1.617984 c 1.54795,0.889891 17.03353,9.828478 34.41241,19.863529 l 31.59796,18.245545 0.13926,39.41195 c 0.11539,32.65851 0.10095,39.44726 -0.0843,39.61796 -0.17851,0.16451 -66.73187,38.32457 -67.97317,38.97414 -0.29276,0.15319 -5.17662,-2.6138 -34.715615,-19.66848 z m 37.556467,-3.12721 c 0.71061,-1.62 0.75708,-1.79114 0.51121,-1.88215 -0.1048,-0.0388 -0.23421,0.1034 -0.2876,0.31598 -0.0534,0.21258 -0.20096,0.52858 -0.32797,0.70222 -0.22502,0.30765 -0.25101,0.30682 -1.01845,-0.0327 -0.43314,-0.1916 -0.78753,-0.38797 -0.78753,-0.43639 0,-0.0484 0.12734,-0.35506 0.28298,-0.68145 0.27435,-0.57531 0.20831,-0.98992 -0.10683,-0.67069 -0.13895,0.14077 -1.35581,2.8666 -1.35581,3.03711 0,0.0382 0.0985,0.0693 0.21893,0.0693 0.12041,0 0.31491,-0.26541 0.43221,-0.58982 0.11731,-0.32441 0.30317,-0.58816 0.41303,-0.58613 0.10986,0.002 0.52518,0.1514 0.92294,0.33193 l 0.72319,0.32823 -0.27194,0.52589 c -0.14958,0.28924 -0.22677,0.64365 -0.17154,0.78759 0.0552,0.14393 0.12999,0.23188 0.16612,0.19544 0.0361,-0.0364 0.33181,-0.67293 0.65706,-1.41443 z m -3.44247,-0.65519 c 0.38345,-0.30277 0.8331,-1.46573 0.74806,-1.93473 -0.10453,-0.57642 -0.368,-0.87024 -1.02755,-1.14594 -0.46329,-0.19366 -0.63413,-0.19283 -1.10849,0.005 -0.89929,0.37574 -1.40356,1.79865 -0.94264,2.65988 0.37599,0.70255 1.67396,0.9339 2.33062,0.41541 z m -1.62767,-0.35994 c -0.28507,-0.20141 -0.37917,-0.43473 -0.37917,-0.94009 0,-1.23057 1.24086,-1.94385 2.02227,-1.16245 0.44183,0.44184 0.42632,0.99689 -0.0476,1.70244 -0.44056,0.6559 -1.02577,0.80265 -1.59552,0.4001 z m -36.548249,-2.72203 c 0.388292,-0.91727 0.559624,-1.52141 0.459785,-1.62125 -0.09984,-0.0998 -0.371387,0.30271 -0.728724,1.08027 l -0.569583,1.23941 -0.328579,-1.58548 c -0.180719,-0.87202 -0.410477,-1.61224 -0.510574,-1.64492 -0.177352,-0.0579 -1.423068,2.52133 -1.420339,2.94081 0.0033,0.50603 0.337194,0.12898 0.77428,-0.87432 0.259966,-0.59673 0.522914,-1.05391 0.584329,-1.01596 0.06141,0.038 0.206258,0.65891 0.321873,1.37989 0.115615,0.72098 0.244598,1.36775 0.286629,1.43726 0.230363,0.381 0.578016,-0.0296 1.130903,-1.33571 z m -3.040623,-1.14062 c 0.339938,-0.78269 0.618069,-1.50313 0.618069,-1.60097 0,-0.41239 -0.372059,-0.12899 -0.63887,0.48665 l -0.288003,0.66453 -0.800482,-0.34897 c -0.440265,-0.19194 -0.800482,-0.41758 -0.800482,-0.50142 0,-0.0839 0.109191,-0.41379 0.242647,-0.73319 0.156652,-0.37492 0.182541,-0.61789 0.07305,-0.68556 -0.09328,-0.0576 -0.187974,-0.0783 -0.210433,-0.0458 -0.139124,0.20102 -1.28492,2.89614 -1.28492,3.02235 0,0.36288 0.364351,0.10849 0.623767,-0.43551 0.154698,-0.32441 0.34608,-0.58983 0.425293,-0.58983 0.290913,0 1.478776,0.68632 1.478776,0.85441 0,0.0954 -0.110728,0.38759 -0.246063,0.6493 -0.227173,0.4393 -0.199265,0.68708 0.07739,0.68708 0.06171,0 0.390327,-0.64038 0.730264,-1.42307 z m 37.794402,-1.00217 -1.40872,-1.90385 1.41527,-3.23935 1.41525,-3.23936 -2.12532,-2.89239 c -2.02974,-2.76233 -2.14926,-2.89038 -2.65748,-2.84742 -1.051634,0.0889 -5.26356,0.54664 -5.86419,0.63728 -0.570702,0.0861 -0.699771,0.0143 -1.853747,-1.03175 -1.536608,-1.39289 -2.319772,-2.00457 -2.428004,-1.89633 -0.04571,0.0457 0.676793,0.75605 1.60555,1.57855 0.928756,0.82251 1.688649,1.56248 1.688649,1.64439 0,0.0819 -0.587723,1.50439 -1.306049,3.16106 -1.196717,2.76 -1.341318,3.01173 -1.727356,3.00723 -0.701493,-0.008 -6.239199,-0.61186 -6.315839,-0.6885 -0.08662,-0.0866 -1.436192,-6.12113 -1.436192,-6.42182 0,-0.117 0.695365,-0.62995 1.545257,-1.13988 0.849892,-0.50994 1.575154,-1.01685 1.611694,-1.12647 0.03654,-0.10962 -0.741307,0.26537 -1.728548,0.83331 -2.099994,1.20809 -1.977629,0.59547 -1.007021,5.04167 l 0.649771,2.97651 -2.010148,2.24001 c -1.105581,1.23199 -2.128125,2.3852 -2.272319,2.56268 -0.256667,0.31591 -0.333083,0.30811 -3.640727,-0.37149 -1.858206,-0.38179 -3.421597,-0.69417 -3.474201,-0.69417 -0.185689,0 -2.986977,3.2043 -2.983125,3.4123 0.0039,0.20883 0.678492,-0.45972 2.230563,-2.21046 l 0.802029,-0.90469 3.35122,0.69404 c 1.843171,0.38171 3.390848,0.69404 3.439282,0.69404 0.08511,0 2.422395,-2.53548 4.006505,-4.34625 l 0.773017,-0.88361 3.437733,0.35222 c 1.890754,0.19373 3.476691,0.40886 3.524306,0.47807 0.04762,0.0692 0.985105,1.34946 2.083311,2.845 1.823889,2.48377 2.035419,2.71279 2.443575,2.6457 0.24576,-0.0404 1.584364,-0.19236 2.974673,-0.3377 1.390311,-0.14533 2.757031,-0.30367 3.037151,-0.35187 0.48501,-0.0834 0.57675,0.005 1.92156,1.85601 0.77673,1.069 1.47503,1.90482 1.55178,1.85738 0.0768,-0.0474 -0.49437,-0.94297 -1.26916,-1.99009 z m -9.404781,-2.49004 c -0.501184,-0.67969 -1.418041,-1.92789 -2.037461,-2.7738 l -1.126216,-1.53801 1.350724,-3.0891 c 0.742899,-1.699 1.429637,-3.13786 1.526085,-3.19747 0.09645,-0.0596 1.478483,-0.23996 3.07119,-0.40079 1.592707,-0.16082 3.047759,-0.3274 3.233449,-0.37015 0.27425,-0.0632 0.72281,0.44386 2.38999,2.70149 l 2.05237,2.77924 -1.36027,3.08475 c -0.74815,1.69661 -1.42524,3.12697 -1.50463,3.17858 -0.0794,0.0516 -1.45278,0.22897 -3.051981,0.39416 -1.5992,0.16519 -3.070619,0.33782 -3.269821,0.38362 -0.294336,0.0677 -0.532889,-0.14823 -1.273429,-1.15252 z m 1.38283,-0.10912 c 0,-0.19161 -3.023704,-4.3159 -3.214683,-4.38477 -0.285073,-0.10281 -0.162035,0.1463 0.551521,1.11664 2.684728,3.65084 2.663162,3.62438 2.663162,3.26813 z m 6.720391,-2.8154 c 1.18954,-2.68347 1.22477,-2.77711 1.0447,-2.77711 -0.0797,0 -0.4691,0.73939 -0.86536,1.64309 -0.39626,0.9037 -0.8996,2.04827 -1.11854,2.54348 -0.21893,0.49521 -0.31533,0.87281 -0.21422,0.8391 0.10111,-0.0337 0.62015,-1.04555 1.15342,-2.24856 z m -5.203689,-6.81728 c 2.479429,-0.25204 3.087129,-0.35713 2.923169,-0.50554 -0.10314,-0.0934 -3.650442,0.23118 -5.408875,0.49485 -0.02317,0.003 -0.04213,0.0836 -0.04213,0.17805 0,0.0945 0.170629,0.13591 0.379176,0.0921 0.208546,-0.0438 1.175443,-0.16056 2.14866,-0.25948 z M 63.559938,194.8301 c 0,-0.2055 -0.04767,-0.2142 -0.250637,-0.0457 -0.326068,0.27061 -0.760498,0.0986 -0.760498,-0.30117 0,-0.21127 0.274838,-0.44226 0.842613,-0.70819 0.463436,-0.21706 0.842612,-0.44348 0.842612,-0.50316 0,-0.0987 -1.084346,-0.6765 -1.269636,-0.6765 -0.248506,0 -0.01309,0.31277 0.365126,0.4851 l 0.44367,0.20215 -0.738584,0.3726 c -0.854149,0.43089 -1.043277,0.95744 -0.484487,1.34883 0.418417,0.29307 1.009821,0.19122 1.009821,-0.17391 z m 54.544482,-7.41683 c -0.0437,-0.1622 -0.28639,-1.16701 -0.53927,-2.23292 -0.43095,-1.8164 -0.63773,-2.36137 -0.82495,-2.17415 -0.067,0.067 0.28292,1.59627 0.9313,4.07003 0.0911,0.34757 0.24366,0.63196 0.33903,0.63196 0.0954,0 0.13761,-0.13271 0.0939,-0.29492 z m -33.107513,-2.69636 c -0.322263,-1.45982 -0.613557,-2.68582 -0.64732,-2.72444 -0.236965,-0.27105 -0.177017,0.37366 0.196117,2.10912 0.571606,2.65858 0.740139,3.26955 0.901878,3.26955 0.07439,0 -0.128412,-1.1944 -0.450675,-2.65423 z m 33.418103,-5.77022 c -0.0859,-0.13904 -0.55836,0.22168 -1.46464,1.11833 -1.04797,1.03683 -1.31727,1.2323 -1.24307,0.90227 0.0521,-0.23172 0.24583,-1.06591 0.43052,-1.85375 0.3835,-1.63595 0.41584,-2.12288 0.15186,-2.28603 -0.26712,-0.1651 -3.22734,2.81582 -3.01106,3.0321 0.11188,0.11189 0.59834,-0.25277 1.4533,-1.08943 0.70683,-0.69168 1.23917,-1.12507 1.18299,-0.96309 -0.0562,0.16198 -0.26851,1.08739 -0.47185,2.05647 -0.3113,1.48359 -0.33406,1.8049 -0.14409,2.03379 0.20046,0.24155 0.39373,0.10372 1.73424,-1.23679 0.96418,-0.96419 1.46286,-1.58271 1.3818,-1.71387 z m -28.221805,-0.41704 c 0.367053,-0.82845 0.667368,-1.52892 0.667368,-1.55659 0,-0.0276 -0.105472,-0.0503 -0.234384,-0.0503 -0.12891,0 -0.447841,0.48998 -0.708733,1.08884 -0.260892,0.59887 -0.509694,1.0535 -0.552893,1.0103 -0.0432,-0.0432 -0.203733,-0.74172 -0.356742,-1.55228 -0.181696,-0.96252 -0.354902,-1.47373 -0.499324,-1.47373 -0.121619,0 -0.509604,0.6446 -0.862188,1.43244 -0.710171,1.58687 -0.738547,1.68523 -0.486181,1.68523 0.09656,0 0.412097,-0.51189 0.701184,-1.13753 l 0.525613,-1.13753 0.323925,1.43244 c 0.41882,1.85208 0.432951,1.89236 0.639832,1.8234 0.09634,-0.0321 0.475471,-0.73622 0.842523,-1.56467 z m 22.237525,-0.21659 c -4e-4,-0.0695 -1.04313,-0.43311 -2.31719,-0.80799 l -2.31647,-0.68161 -1.03027,-4.08424 c -0.56664,-2.24633 -1.06948,-4.12346 -1.11742,-4.1714 -0.048,-0.048 -1.78353,-0.57998 -3.85688,-1.18231 -2.073347,-0.60233 -3.914523,-1.15315 -4.091501,-1.22404 -0.232571,-0.0932 -0.709896,-1.17724 -1.721768,-3.91041 -0.769995,-2.07983 -1.402505,-3.88841 -1.405577,-4.01906 -0.0031,-0.13065 0.866517,-1.90117 1.932422,-3.93449 1.065904,-2.03332 1.938007,-3.72148 1.938007,-3.75147 0,-0.10671 -4.267113,-6.91167 -4.513313,-7.19758 -0.22384,-0.25996 -0.532413,-0.28192 -2.882225,-0.20519 -1.44735,0.0473 -3.407155,0.12857 -4.35512,0.18068 l -1.723574,0.0948 -1.328723,2.46975 c -0.730797,1.35836 -1.646192,3.0862 -2.03421,3.83965 l -0.705487,1.36989 2.294627,3.67236 2.294628,3.67235 -0.601244,2.23198 c -0.639996,2.37584 -0.67957,2.59776 -0.463267,2.59776 0.07589,0 0.428208,-1.0617 0.782936,-2.35932 l 0.644961,-2.35932 h 1.128056 c 0.620431,0 2.487508,-0.0492 4.149061,-0.10942 l 3.021004,-0.10943 1.389212,3.77479 c 0.764067,2.07614 1.388485,3.85209 1.387594,3.94658 -8.91e-4,0.0945 -0.921462,0.89075 -2.045716,1.76948 -1.124255,0.87874 -2.546163,1.99541 -3.159796,2.4815 -0.613634,0.4861 -1.153615,0.88413 -1.199958,0.88452 -0.04634,3.8e-4 -1.102599,-0.67783 -2.347233,-1.50715 -1.244634,-0.82931 -2.32809,-1.46759 -2.40768,-1.4184 -0.162815,0.10062 0.339136,0.48022 2.940837,2.22397 l 1.809157,1.21256 3.388673,-2.63501 3.388674,-2.635 3.902383,1.13808 c 2.1463,0.62595 3.99082,1.22302 4.09893,1.32684 0.1081,0.10381 0.62725,1.93296 1.15366,4.06477 0.5264,2.13181 1.02813,3.95052 1.11496,4.04158 0.17663,0.18525 4.10997,1.41298 4.57063,1.42664 0.1622,0.005 0.29459,-0.0481 0.29421,-0.11764 z M 85.135869,157.17202 c -0.367132,-0.58399 -1.385069,-2.19931 -2.262081,-3.58963 l -1.59457,-2.52783 0.550696,-1.01114 c 0.302883,-0.55612 1.177981,-2.19453 1.944662,-3.64091 l 1.393968,-2.62977 1.776835,-0.10872 c 0.977259,-0.0598 2.89174,-0.10871 4.254402,-0.10871 h 2.477568 l 2.065376,3.29872 c 1.135958,1.81429 2.100578,3.43332 2.143601,3.59784 0.07289,0.27875 -3.285239,6.93117 -3.718175,7.36566 -0.124211,0.12466 -1.603976,0.22963 -4.277341,0.30343 l -4.087428,0.11284 z m 8.066009,-0.40111 c 0.602602,-0.20221 -0.195102,-0.26596 -3.089058,-0.24687 -3.012926,0.0199 -3.711287,0.0829 -3.563816,0.32149 0.07498,0.12132 6.276236,0.0518 6.652874,-0.0746 z m -8.711031,-8.37185 c 1.615973,-3.01607 1.75918,-3.32705 1.53214,-3.32705 -0.141995,0 -3.096315,5.36963 -3.221717,5.85564 -0.02997,0.11614 0.0079,0.2106 0.08426,0.2099 0.07631,-6.3e-4 0.798703,-1.23301 1.605315,-2.73849 z m 12.095746,2.1078 c -0.0066,-0.22232 -3.46518,-5.64512 -3.586813,-5.62384 -0.06432,0.0113 -0.12519,0.0635 -0.135277,0.11608 -0.03606,0.18801 3.412408,5.63415 3.567519,5.63415 0.08707,0 0.15663,-0.0569 0.154571,-0.12639 z m 23.925237,24.66379 c 0.87576,-0.88418 1.54303,-1.65687 1.48281,-1.71709 -0.14632,-0.14632 -4.17611,3.6608 -4.06508,3.84046 0.13355,0.21608 0.84258,-0.36693 2.58227,-2.12337 z m -28.760967,-0.2018 c 0.344666,-0.79658 0.584215,-1.51701 0.532332,-1.60096 -0.16424,-0.26575 -0.371639,-0.16581 -0.47016,0.22654 -0.05237,0.20855 -0.194808,0.51534 -0.316536,0.68177 -0.211877,0.28967 -0.255361,0.28754 -1.018657,-0.0501 l -0.797332,-0.35269 0.252987,-0.48923 c 0.280297,-0.54203 0.330713,-1.01153 0.108622,-1.01153 -0.166152,0 -1.372337,2.60458 -1.372337,2.96335 0,0.44632 0.284977,0.24053 0.583419,-0.42129 l 0.297564,-0.65988 0.777843,0.33342 c 0.427813,0.18338 0.803947,0.35953 0.835853,0.39144 0.0319,0.0319 -0.06134,0.28879 -0.2072,0.57086 -0.321686,0.62208 -0.335553,0.86664 -0.04914,0.86664 0.11884,0 0.498072,-0.65174 0.842738,-1.44833 z m -10.83546,-3.3522 c 1.114366,-1.12018 1.37839,-1.47434 1.218395,-1.63434 -0.159995,-0.15999 -0.324753,-0.0875 -0.760307,0.33469 -0.305827,0.29642 -0.631443,0.53894 -0.72359,0.53894 -0.09215,0 -0.502263,-0.34105 -0.911364,-0.7579 l -0.743821,-0.75789 0.625125,-0.64019 c 0.491605,-0.50345 0.581249,-0.68406 0.419704,-0.8456 -0.161544,-0.16155 -0.520292,0.10799 -1.679626,1.26195 -1.163341,1.15796 -1.434206,1.51558 -1.284514,1.69594 0.153978,0.18554 0.320571,0.10012 0.884848,-0.45367 l 0.695157,-0.68225 0.82912,0.84178 0.82912,0.84177 -0.644171,0.6597 c -0.558563,0.57201 -0.690119,1.02716 -0.296896,1.02716 0.06609,0 0.760361,-0.64354 1.54282,-1.43009 z m 12.205431,-3.89439 c 2.064738,-1.62975 2.547648,-2.0958 2.163453,-2.08792 -0.190587,0.004 -4.835127,3.70731 -4.910145,3.91519 -0.13197,0.3657 0.506722,-0.0592 2.746692,-1.82727 z m -8.66646,0.35542 c 1.123601,-1.12946 1.379204,-1.47353 1.215956,-1.63678 -0.163248,-0.16324 -0.475614,0.0577 -1.485993,1.05091 -0.729895,0.71752 -1.237842,1.11286 -1.182772,0.92056 0.245846,-0.85845 0.781066,-3.33158 0.781066,-3.60912 0,-0.17044 -0.09917,-0.3922 -0.220388,-0.49279 -0.169559,-0.14073 -0.566576,0.16489 -1.721392,1.32508 -1.185886,1.1914 -1.457587,1.5514 -1.294201,1.71479 0.163385,0.16338 0.469054,-0.0537 1.456009,-1.03408 l 1.249209,-1.24087 -0.320178,1.41571 c -0.492552,2.17788 -0.541753,2.48908 -0.436783,2.76262 0.05362,0.13973 0.196337,0.25405 0.317152,0.25405 0.120814,0 0.859856,-0.64354 1.642315,-1.43008 z m 14.906309,-28.71881 c 0.176046,-0.28485 0.137983,-2.79521 -0.05293,-3.49077 -0.251523,-0.9164 -1.049795,-1.91293 -1.908097,-2.38201 -0.528225,-0.28867 -0.969022,-0.37917 -1.846961,-0.37917 h -1.153151 v -4.80289 -4.80289 h 21.225276 21.22529 l 0.0507,5.51911 c 0.0558,6.07512 0.0417,5.98908 1.15791,7.08037 0.9901,0.96801 1.51481,1.11443 4.03269,1.12529 l 2.27506,0.01 0.0428,-20.51761 0.0428,-20.517599 h -2.19687 c -1.49701,0 -2.36964,0.0743 -2.73916,0.23317 -0.8312,0.35739 -1.75247,1.4302 -2.22336,2.58908 -0.4186,1.030179 -0.42546,1.120479 -0.42546,5.600519 v 4.55345 h -9.8586 -9.85856 v -2.1577 c 0,-1.9866 -0.0348,-2.22752 -0.43872,-3.03811 -0.76914,-1.54346 -2.10614,-2.21917 -4.39095,-2.21917 h -1.23713 v -3.171909 c 0,-2.40403 -0.0624,-3.35496 -0.25766,-3.92807 -0.29789,-0.87428 -1.26794,-1.948412 -2.05953,-2.280532 l -0.5477,-0.229792 V 89.537473 86.92331 l 0.4972,0.257111 c 0.42284,0.218657 1.57045,0.257111 7.67319,0.257111 7.9918,0 8.07115,-0.0098 8.56856,-1.058001 0.35289,-0.743666 0.36281,-2.006575 0.0214,-2.72602 -0.48833,-1.029082 -0.40218,-1.018868 -8.59499,-1.018868 -7.09555,0 -7.47313,0.01552 -7.81068,0.321033 l -0.35469,0.321033 -6.3e-4,-0.910862 c -6.4e-4,-1.203705 -0.43228,-1.920469 -1.31525,-2.185011 -0.5466,-0.163768 -0.75492,-0.151074 -1.23141,0.07503 -0.74472,0.353397 -0.99938,0.784977 -1.11304,1.88636 l -0.0928,0.898789 -0.48742,-0.252056 c -0.41509,-0.21465 -1.56839,-0.244804 -7.771355,-0.203187 -6.63259,0.0445 -7.323052,0.07545 -7.721396,0.346146 -0.594947,0.404296 -0.826455,0.981065 -0.826455,2.058995 0,1.195088 0.211123,1.70072 0.880542,2.108865 0.529035,0.322553 0.852093,0.336475 7.798363,0.336084 5.966021,-3.36e-4 7.328351,-0.04313 7.709901,-0.24216 l 0.46344,-0.241751 v 2.598678 2.598679 l -0.6578,0.335579 c -0.8132,0.414868 -1.59175,1.336714 -1.84621,2.186014 -0.11485,0.38334 -0.19235,1.93219 -0.19235,3.844 v 3.201979 l -1.6431,0.0803 c -1.87564,0.0917 -2.692129,0.41043 -3.547688,1.38485 -0.753466,0.85816 -1.044544,2.02066 -1.044544,4.17169 v 1.82316 l -6.783028,0.004 c -6.718089,0.003 -6.793961,0.007 -7.925024,0.40659 -1.972202,0.69603 -3.598031,2.2425 -4.391382,4.17703 -0.3566,0.86955 -0.36602,1.09934 -0.413758,10.09283 l -0.04885,9.20303 -1.18352,0.11 c -2.03734,0.18935 -3.062144,0.83239 -3.794121,2.38073 -0.300925,0.63654 -0.398185,1.13111 -0.39769,2.02227 3.6e-4,0.64881 0.04638,1.35028 0.10227,1.55883 l 0.101615,0.37918 h 14.210546 c 8.255197,0 14.249888,-0.0637 14.304424,-0.15191 z"
       id="path1" /></g></svg>
