<?xml version="1.0" encoding="UTF-8" standalone="no"?>
<!-- Created with Inkscape (http://www.inkscape.org/) -->

<svg
   width="181.02907mm"
   height="154.85699mm"
   viewBox="0 0 181.02907 154.85699"
   version="1.1"
   id="svg1"
   xml:space="preserve"
   xmlns="http://www.w3.org/2000/svg"
   xmlns:svg="http://www.w3.org/2000/svg"><defs
     id="defs1" /><g
     id="layer1"
     transform="translate(-14.82972,-26.032911)"><path
       style="fill:#ffffff;fill-opacity:1;stroke-width:0.264583"
       id="path4"
       d="m 108.75094,161.44736 -146.203224,0.59858 -73.619996,-126.316415 72.583223,-126.915 146.203227,-0.598581 73.62,126.316418 z"
       transform="matrix(0.61667857,0,0,0.6032878,83.77579,82.130694)" /><path
       style="fill:#000000;fill-opacity:1"
       d="m 57.269315,176.39506 c -1.440043,-2.47216 -2.842374,-4.88178 -3.11629,-5.35472 -0.273917,-0.47293 -2.385417,-4.09617 -4.692223,-8.05162 -2.306806,-3.95546 -4.418204,-7.5787 -4.691995,-8.05163 -0.273792,-0.47294 -1.75102,-3.00568 -3.282727,-5.62832 -1.53171,-2.62264 -3.00915,-5.15539 -3.28319,-5.62832 -0.27404,-0.47294 -1.75148,-3.00568 -3.28319,-5.62832 -1.53171,-2.62264 -3.00937,-5.15539 -3.2837,-5.62832 -0.27432,-0.47294 -1.75268,-3.00568 -3.28523,-5.62832 -1.53255,-2.62265 -3.02077,-5.17298 -3.30714,-5.66741 -0.87697,-1.51409 -1.46284,-2.51988 -4.34862,-7.46534 -1.53037,-2.62264 -3.15002,-5.40163 -3.59923,-6.17552 -0.44921,-0.7739 -1.14284,-1.95814 -1.5414,-2.63165 -0.39856,-0.67352 -0.72466,-1.33665 -0.72466,-1.47364 0,-0.13698 0.57703,-1.23924 1.28229,-2.44947 0.70526,-1.210217 1.60999,-2.763237 2.01052,-3.451147 0.40053,-0.6879 1.98123,-3.39653 3.51266,-6.01917 1.53144,-2.62264 3.01875,-5.17298 3.30512,-5.66741 0.92575,-1.59831 1.51869,-2.61565 4.35107,-7.46534 1.53171,-2.62264 3.0093,-5.15539 3.28354,-5.62832 0.27423,-0.47294 1.75093,-3.00568 3.28156,-5.62832 1.53062,-2.62264 3.00712,-5.15539 3.28111,-5.62832 0.27399,-0.47294 2.38555,-4.09617 4.692351,-8.051629 2.306806,-3.955459 4.418204,-7.57869 4.691995,-8.051626 0.273791,-0.472935 1.752335,-3.005679 3.285651,-5.628321 1.533317,-2.622641 2.987442,-5.120208 3.231389,-5.550149 0.243946,-0.429941 1.411116,-2.435031 2.593711,-4.455754 l 2.150172,-3.674043 h 45.561181 45.56117 l 0.54064,0.938053 c 0.29735,0.51593 1.01674,1.747125 1.59866,2.73599 1.16088,1.972725 6.78361,11.603158 7.57628,12.976406 0.27299,0.472935 1.74956,3.00568 3.28127,5.628321 2.86798,4.910641 3.45771,5.92255 4.35074,7.465342 0.2862,0.494433 2.16266,3.713129 4.16991,7.15266 2.00725,3.43953 3.87293,6.64063 4.14595,7.11357 0.27302,0.47294 1.75031,3.00568 3.28286,5.62832 1.53256,2.62264 3.00976,5.15539 3.28268,5.62832 0.27292,0.47294 1.74943,3.00568 3.28114,5.62832 1.53171,2.62264 3.02016,5.17298 3.30766,5.66741 0.2875,0.49443 0.75789,1.3035 1.04532,1.79793 0.28742,0.49444 1.58442,2.72 2.88222,4.94571 2.15866,3.702057 2.34185,4.074917 2.15078,4.377577 -0.11487,0.18197 -1.21033,2.05452 -2.43436,4.16123 -1.22402,2.10672 -2.61507,4.49875 -3.09121,5.31564 -0.47614,0.81689 -1.08948,1.8722 -1.36297,2.34513 -0.2735,0.47294 -1.36217,2.33732 -2.41927,4.14307 -1.05709,1.80576 -2.14582,3.67014 -2.41938,4.14307 -0.27357,0.47294 -1.75219,3.00568 -3.28583,5.62832 -1.53364,2.62264 -3.01215,5.15539 -3.28558,5.62832 -0.27343,0.47294 -1.75036,3.00568 -3.28207,5.62833 -1.53171,2.62264 -3.00915,5.15538 -3.28319,5.62832 -0.27404,0.47293 -1.75148,3.00568 -3.28319,5.62832 -1.53171,2.62264 -3.00807,5.15538 -3.28079,5.62832 -0.27273,0.47293 -1.75067,3.00568 -3.2843,5.62832 -1.53364,2.62264 -3.01243,5.15538 -3.28621,5.62832 -0.27377,0.47293 -1.96148,3.37504 -3.75048,6.44912 l -3.25271,5.58923 h -45.4561 -45.456104 z m 94.350125,-0.002 c 0.98349,-1.69703 2.07837,-3.57799 2.43305,-4.17991 0.35468,-0.60192 0.93392,-1.58688 1.2872,-2.18879 0.92192,-1.57079 6.56453,-11.25138 7.15359,-12.27287 0.27273,-0.47294 1.74977,-3.00568 3.28233,-5.62832 1.53255,-2.62264 3.00977,-5.15539 3.28271,-5.62832 0.64626,-1.1198 1.62644,-2.80178 5.01099,-8.59883 1.53121,-2.62264 3.00799,-5.15538 3.28175,-5.62832 0.27376,-0.47293 1.36264,-2.33731 2.41974,-4.14307 1.05709,-1.80575 2.14582,-3.67013 2.41938,-4.14307 0.27357,-0.47293 1.75219,-3.00567 3.28583,-5.62832 1.53364,-2.62264 3.01224,-5.15538 3.28579,-5.62832 0.27355,-0.47293 0.64208,-1.10612 0.81896,-1.40708 3.34103,-5.68483 4.57663,-7.89618 4.50961,-8.07085 -0.0449,-0.11693 -0.72804,-1.32129 -1.51815,-2.67634 -0.7901,-1.355047 -1.66096,-2.850667 -1.93523,-3.323607 -0.27427,-0.47293 -1.75189,-3.00568 -3.2836,-5.62832 -1.53171,-2.62264 -3.00919,-5.15539 -3.2833,-5.62832 -0.27411,-0.47294 -0.74663,-1.28201 -1.05003,-1.79794 -0.80279,-1.36511 -14.31434,-24.545422 -14.89979,-25.561954 -0.27238,-0.472935 -1.74845,-3.00568 -3.28016,-5.628321 -2.83238,-4.849686 -3.42533,-5.867035 -4.35107,-7.465342 -0.28638,-0.494432 -1.77591,-3.044765 -3.31007,-5.667406 -1.53416,-2.622641 -2.98894,-5.120209 -3.23284,-5.55015 -0.24389,-0.429941 -1.26952,-2.188791 -2.27916,-3.908556 l -1.83572,-3.126845 H 105.35188 60.872516 l -0.878005,1.485251 c -1.693624,2.864971 -3.115195,5.297167 -7.173248,12.272867 -2.251031,3.86947 -4.237299,7.28164 -4.413928,7.582598 -0.17663,0.300959 -1.653446,2.833704 -3.281814,5.628321 -1.628369,2.794618 -3.230941,5.538424 -3.561271,6.097347 -0.58124,0.98347 -6.10453,10.45149 -7.11392,12.1947 -0.27385,0.47293 -1.75113,3.00568 -3.28284,5.62832 -1.53171,2.62264 -3.00915,5.15538 -3.28319,5.62832 -0.27404,0.47293 -1.75148,3.00568 -3.28319,5.62832 -1.53171,2.62264 -3.0089,5.15538 -3.28265,5.62832 -0.91353,1.57826 -2.21474,3.80908 -3.4981,5.997257 -0.69898,1.19178 -1.27087,2.23509 -1.27087,2.31846 0,0.0834 0.5852,1.14853 1.30044,2.36704 1.53429,2.61388 1.86572,3.18066 2.52973,4.32609 0.27416,0.47294 1.75169,3.00568 3.2834,5.62833 1.53171,2.62264 3.00915,5.15538 3.28319,5.62832 0.27404,0.47293 1.75148,3.00568 3.28319,5.62832 1.53171,2.62264 3.00914,5.15538 3.28318,5.62832 0.27405,0.47293 1.75148,3.00568 3.28319,5.62832 1.53171,2.62264 3.00864,5.15538 3.28207,5.62832 0.27344,0.47294 1.75195,3.00568 3.285583,5.62832 1.533638,2.62264 3.022584,5.17297 3.308769,5.66741 1.271079,2.196 1.700627,2.93432 4.024888,6.91814 1.354527,2.32168 2.732698,4.67854 3.062602,5.23747 0.466611,0.79053 5.560952,9.52196 6.863551,11.76376 l 0.249243,0.42896 44.479364,-0.001 44.47937,-10e-4 z m -89.221401,0.3931 c -0.132574,-0.16785 -0.853353,-1.39528 -3.55756,-6.05826 -0.27427,-0.47294 -1.75189,-3.00568 -3.283599,-5.62832 -1.53171,-2.62265 -3.009145,-5.15539 -3.283188,-5.62833 -0.274043,-0.47293 -1.751477,-3.00568 -3.283187,-5.62832 -1.53171,-2.62264 -3.009144,-5.15538 -3.283187,-5.62832 -0.274043,-0.47293 -1.751477,-3.00568 -3.283188,-5.62832 -1.53171,-2.62264 -3.00914,-5.15538 -3.28319,-5.62832 -0.27404,-0.47293 -1.75147,-3.00568 -3.28318,-5.62832 -1.53171,-2.62264 -3.00983,-5.15539 -3.28472,-5.62832 -0.27488,-0.47294 -1.36358,-2.33732 -2.41932,-4.14307 -2.60004,-4.44712 -3.56153,-6.09614 -4.14769,-7.11357 -0.27247,-0.47294 -1.84583,-3.17129 -3.49637,-5.99635 -2.02061,-3.45847 -2.95311,-5.195 -2.85447,-5.31563 0.11792,-0.14422 3.4849,-5.887357 6.22318,-10.615017 0.92574,-1.59831 1.51869,-2.61566 4.35107,-7.46534 1.53171,-2.62265 3.00914,-5.15539 3.28318,-5.62833 0.27405,-0.47293 1.75148,-3.00567 3.28319,-5.62832 1.53171,-2.62264 3.00914,-5.15538 3.28319,-5.62832 0.27404,-0.47293 1.75147,-3.00568 3.283184,-5.62832 1.53171,-2.622639 3.009144,-5.155383 3.283187,-5.628319 0.274043,-0.472935 1.751478,-3.005679 3.283188,-5.62832 1.531709,-2.622642 3.008281,-5.155386 3.281269,-5.628321 0.74577,-1.292 6.366018,-10.919505 7.575236,-12.976407 0.581337,-0.988864 1.188184,-2.026586 1.348549,-2.306048 l 0.291572,-0.508112 42.921325,0.002 42.92132,0.002 0.93113,1.600531 c 0.51212,0.880291 1.25855,2.163362 1.65875,2.851268 0.40019,0.687906 1.98061,3.396535 3.51205,6.019176 1.53144,2.622642 3.01874,5.172974 3.30512,5.667407 0.28638,0.494432 0.7551,1.303503 1.0416,1.797936 0.2865,0.494432 2.61984,4.487022 5.1852,8.872422 4.42315,7.561252 4.98187,8.518632 6.22712,10.670362 0.28614,0.49443 1.52874,2.62264 2.76134,4.72935 2.14812,3.67149 2.64725,4.52761 3.80547,6.52729 0.28637,0.49443 1.77459,3.04476 3.30714,5.6674 1.53255,2.62265 3.00984,5.15539 3.28287,5.62833 0.27302,0.47293 2.12662,3.65624 4.11911,7.07402 1.99249,3.417772 3.62271,6.306732 3.62271,6.419902 0,0.11317 -0.27138,0.65862 -0.60307,1.21212 -0.54552,0.91033 -4.98554,8.51561 -6.20084,10.6214 -0.27295,0.47293 -1.75017,3.00568 -3.28273,5.62832 -1.53255,2.62264 -3.02076,5.17297 -3.30714,5.66741 -0.92574,1.5983 -1.51869,2.61565 -4.35107,7.46534 -1.53171,2.62264 -3.00914,5.15538 -3.28318,5.62832 -0.27405,0.47293 -1.75148,3.00568 -3.28319,5.62832 -1.53171,2.62264 -3.00915,5.15539 -3.28319,5.62832 -0.27404,0.47294 -1.75148,3.00568 -3.28319,5.62832 -1.53171,2.62264 -3.00828,5.15539 -3.28127,5.62832 -1.12389,1.94709 -6.59642,11.31035 -7.60714,13.01549 l -1.08888,1.83703 h -42.81008 c -34.061506,0 -42.841618,-0.0399 -42.964431,-0.19543 z M 114.0586,164.35452 c 0.78968,-1.70709 1.10929,-2.51957 1.0245,-2.60436 -0.20086,-0.20086 -0.35103,-0.0563 -0.65486,0.63061 -0.19417,0.43897 -0.39567,0.69015 -0.51543,0.64252 -1.68449,-0.66996 -1.73961,-0.73484 -1.29101,-1.51959 0.28609,-0.50046 0.29222,-0.78171 0.017,-0.78171 -0.12455,0 -0.48742,0.61796 -0.8492,1.44617 -0.75561,1.72978 -0.78954,1.85479 -0.52922,1.94996 0.12419,0.0454 0.29897,-0.17295 0.45366,-0.56674 0.29107,-0.74099 0.53777,-0.79582 1.46117,-0.32473 0.7001,0.35716 0.70625,0.3755 0.38462,1.14527 -0.28445,0.68079 -0.28701,0.72831 -0.0391,0.72522 0.10748,-0.001 0.34951,-0.33551 0.53783,-0.74262 z m -3.75868,-1.23074 c 1.08467,-0.5147 1.48727,-2.1325 0.74903,-3.00984 -0.76934,-0.91432 -2.00886,-0.80155 -2.72656,0.24805 -0.74775,1.09355 -0.44678,2.29079 0.70354,2.79855 0.60519,0.26714 0.63542,0.26627 1.27399,-0.0368 z m -1.03948,-0.32391 c -0.92049,-0.33846 -1.08922,-1.55927 -0.32813,-2.37403 0.55682,-0.59607 1.13454,-0.63141 1.66415,-0.10181 0.46845,0.46846 0.49267,1.07727 0.0704,1.76985 -0.24212,0.3971 -0.94256,0.89015 -1.14301,0.80456 -0.0159,-0.007 -0.13444,-0.0511 -0.26342,-0.0986 z m -39.88603,-3.15293 c 0.703083,-1.60008 0.739073,-1.73951 0.4487,-1.73829 -0.107486,4.5e-4 -0.427681,0.51052 -0.711546,1.13348 -0.589193,1.29304 -0.664102,1.2598 -0.970956,-0.43076 -0.232344,-1.28006 -0.405054,-1.79793 -0.599603,-1.79793 -0.122679,0 -1.587366,3.0827 -1.587366,3.3409 0,0.0542 0.09742,0.0986 0.216489,0.0986 0.119451,0 0.448377,-0.52766 0.733825,-1.17719 0.307481,-0.69967 0.559341,-1.09604 0.620887,-0.97714 0.05695,0.11003 0.226222,0.83323 0.376155,1.60713 0.252887,1.30531 0.485266,1.78881 0.729482,1.51782 0.05489,-0.0609 0.389663,-0.7704 0.743933,-1.57665 z m -3.223282,-1.33798 c 0.389951,-0.89722 0.669201,-1.67112 0.620555,-1.71976 -0.207227,-0.20723 -0.385036,-0.0468 -0.67529,0.6094 -0.337182,0.76225 -0.380431,0.76676 -1.550895,0.16149 -0.53794,-0.27818 -0.553163,-0.35279 -0.229864,-1.12655 0.240767,-0.57624 0.107897,-1.01843 -0.19182,-0.63838 -0.274929,0.34861 -1.421256,3.07437 -1.330927,3.1647 0.190983,0.19099 0.355246,0.0566 0.659276,-0.53934 0.175472,-0.34396 0.357333,-0.62537 0.404136,-0.62537 0.2455,0 1.628313,0.68446 1.628313,0.80598 0,0.0782 -0.105064,0.39357 -0.233475,0.7009 -0.224456,0.5372 -0.201069,0.83825 0.06512,0.83825 0.06923,0 0.444923,-0.73409 0.834874,-1.63132 z m 42.171262,1.02677 c 0,-0.0745 -0.56943,-0.9012 -1.2654,-1.83702 -0.69597,-0.93583 -1.3368,-1.85179 -1.42407,-2.03548 -0.13068,-0.27506 0.0959,-0.91583 1.28439,-3.63206 0.79368,-1.81395 1.40998,-3.42459 1.36954,-3.57921 -0.0404,-0.15463 -1.03977,-1.59819 -2.22075,-3.20791 l -2.14723,-2.92678 -0.65149,0.009 c -0.35831,0.005 -2.02339,0.17025 -3.700159,0.36692 -1.89685,0.22249 -3.15221,0.30539 -3.32271,0.21944 -0.15073,-0.076 -1.0281,-0.80392 -1.94971,-1.61766 -1.532201,-1.35283 -2.033664,-1.70885 -1.893265,-1.34413 0.02866,0.0745 0.843597,0.85289 1.810965,1.72986 0.96737,0.87696 1.75885,1.62441 1.75885,1.66099 0,0.0366 -0.55266,1.316 -1.22813,2.84315 -0.67548,1.52715 -1.276209,2.92858 -1.334966,3.11429 -0.218369,0.69018 -0.378723,0.71381 -3.093149,0.4557 -4.360739,-0.41464 -4.48408,-0.43255 -4.572891,-0.66398 -0.124728,-0.32504 -1.496533,-6.56435 -1.496533,-6.8066 0,-0.11454 0.773284,-0.6641 1.718408,-1.22126 1.571631,-0.92649 1.976012,-1.24753 1.571389,-1.24753 -0.199739,0 -2.965582,1.61571 -3.389255,1.97989 l -0.333972,0.28707 0.764486,3.5177 c 0.420467,1.93474 0.74664,3.61365 0.724827,3.73091 -0.06498,0.34931 -4.54682,5.31723 -4.886268,5.4162 -0.171976,0.0501 -1.89565,-0.23675 -3.830385,-0.63753 l -3.517701,-0.7287 -1.066315,1.1516 c -1.576463,1.70255 -2.195663,2.47566 -2.077465,2.59386 0.05798,0.058 0.542418,-0.38353 1.076541,-0.98111 0.534122,-0.59759 1.252933,-1.38259 1.597357,-1.74446 l 0.626225,-0.65793 3.299676,0.68837 c 1.814823,0.3786 3.468353,0.7307 3.674512,0.78245 0.325835,0.0818 0.589189,-0.14702 2.014532,-1.7502 0.901834,-1.01436 1.89759,-2.1257 2.212794,-2.46965 0.315203,-0.34395 0.709156,-0.79507 0.875452,-1.00248 l 0.302355,-0.37711 3.659901,0.34892 c 4.29274,0.40925 3.494437,-0.0738 6.317715,3.82306 1.80465,2.49089 1.89695,2.58971 2.42331,2.5943 0.30096,0.003 2.023179,-0.16852 3.827169,-0.38031 1.80398,-0.2118 3.32305,-0.33439 3.3757,-0.27243 0.0526,0.062 0.72059,0.9745 1.4843,2.02785 1.27429,1.75757 1.63142,2.14715 1.63142,1.77967 z m -12.395669,-5.84457 c -2.272212,-3.06425 -2.456846,-3.33193 -2.456846,-3.56192 0,-0.21307 0.864366,-2.28536 2.069626,-4.96189 0.59191,-1.31444 0.87659,-1.77906 1.12076,-1.82912 1.0406,-0.21336 7.015459,-0.72546 7.121129,-0.61035 0.38245,0.4166 4.22831,5.6995 4.22831,5.80826 0,0.26639 -2.88754,6.74565 -3.0136,6.76211 -1.0013,0.13078 -6.840289,0.77547 -7.029609,0.77615 -0.16959,6.1e-4 -0.93676,-0.89574 -2.03977,-2.38324 z m 2.38976,1.04359 c 0,-0.13582 -3.12235,-4.40202 -3.37554,-4.61215 -0.58902,-0.48884 -0.087,0.35971 1.4437,2.44027 1.45633,1.97946 1.93184,2.51406 1.93184,2.17188 z m 6.696839,-1.8253 c 0.25978,-0.62341 0.75883,-1.75608 1.10899,-2.51704 0.66124,-1.43699 0.72968,-1.66511 0.49957,-1.66511 -0.0754,0 -0.28289,0.33418 -0.4611,0.74262 -0.1782,0.40845 -0.67934,1.54824 -1.11364,2.53287 -0.82625,1.87322 -0.87926,2.04014 -0.6479,2.04014 0.078,0 0.3543,-0.51006 0.61408,-1.13348 z m -4.3517,-8.64619 c 1.24683,-0.13698 2.3338,-0.31427 2.41549,-0.39398 0.19721,-0.19245 0.0656,-0.18781 -2.59078,0.0911 -2.886079,0.30308 -3.264239,0.36871 -3.264239,0.56646 0,0.0999 0.22691,0.12864 0.58628,0.0742 0.32246,-0.0488 1.60642,-0.20086 2.853249,-0.33783 z M 63.088867,156.2647 c 0.0284,-0.0868 -0.177242,-0.15719 -0.456987,-0.15635 -0.397542,0.001 -0.518828,-0.0699 -0.555339,-0.32545 -0.03787,-0.26506 0.13241,-0.40738 0.898968,-0.75139 0.520125,-0.23342 0.945681,-0.48014 0.945681,-0.54826 0,-0.16722 -1.282732,-0.66263 -1.395733,-0.53906 -0.04923,0.0538 -0.01916,0.12458 0.06682,0.1572 0.08599,0.0326 0.261873,0.12986 0.390855,0.21608 0.264233,0.17664 0.146334,0.30036 -0.770005,0.80802 -0.51361,0.28454 -0.645488,0.83529 -0.286074,1.1947 0.222769,0.22277 1.084256,0.18162 1.16181,-0.0555 z m 58.438713,-10.26471 c -0.31821,-1.31861 -0.63262,-2.45637 -0.69871,-2.52835 -0.3078,-0.33528 -0.23487,0.30615 0.27265,2.39784 0.50522,2.08219 0.75562,2.77695 0.9359,2.59667 0.0378,-0.0378 -0.19164,-1.14756 -0.50984,-2.46616 z m -34.624664,2.0192 c -0.0038,-0.25563 -1.232058,-5.46692 -1.305886,-5.54075 -0.259127,-0.25912 -0.20216,0.22339 0.308677,2.61454 0.646108,3.02433 0.629452,2.96529 0.836545,2.96529 0.08869,0 0.160986,-0.0176 0.160664,-0.0391 z m 34.041174,-7.03232 c 0.797,-0.79369 1.4491,-1.52826 1.4491,-1.63236 0,-0.5022 -0.42026,-0.29209 -1.48943,0.74462 -0.64241,0.62291 -1.21505,1.08553 -1.27254,1.02804 -0.0575,-0.0575 0.0861,-0.9353 0.31903,-1.9507 0.66283,-2.88905 0.38103,-3.04027 -1.73628,-0.93176 -0.797,0.79369 -1.4491,1.53241 -1.4491,1.64159 0,0.45568 0.60412,0.13424 1.59415,-0.8482 0.58014,-0.57569 1.09109,-1.01042 1.13545,-0.96607 0.0444,0.0444 -0.10684,0.93284 -0.336,1.97441 -0.34575,1.57152 -0.38207,1.93541 -0.21341,2.13863 0.11177,0.13468 0.28124,0.24488 0.37658,0.24488 0.0953,0 0.82544,-0.64939 1.62245,-1.44308 z m -29.068089,-2.38348 c 0.453152,-1.03298 0.621495,-1.58594 0.51519,-1.69224 -0.106305,-0.10631 -0.339682,0.24099 -0.714222,1.06286 -0.305977,0.67143 -0.594462,1.18263 -0.641078,1.13602 -0.04662,-0.0466 -0.218299,-0.73658 -0.381519,-1.53324 -0.304929,-1.48834 -0.501322,-1.89846 -0.777069,-1.62271 -0.08417,0.0842 -0.439136,0.81266 -0.788805,1.61887 -0.434854,1.0026 -0.585038,1.51654 -0.47525,1.62633 0.109789,0.10979 0.339875,-0.22769 0.728093,-1.06794 0.63922,-1.38351 0.699162,-1.36488 1.003512,0.31188 0.253525,1.39676 0.42054,1.83945 0.663593,1.75894 0.106957,-0.0354 0.497356,-0.75487 0.867555,-1.59877 z m 23.950819,-0.21995 c 0,-0.12361 -1.29491,-0.57275 -3.5177,-1.22011 -0.42995,-0.12522 -0.88725,-0.2819 -1.01623,-0.34819 -0.26637,-0.1369 -0.56589,-0.68772 -0.68757,-1.26444 -0.0453,-0.21487 -0.49002,-2.03346 -0.98819,-4.04131 l -0.90577,-3.65065 -1.17162,-0.35971 c -0.6444,-0.19784 -1.69929,-0.51264 -2.3442,-0.69956 -2.45855,-0.71257 -3.85925,-1.12913 -4.66855,-1.3884 l -0.838169,-0.26852 -0.77214,-2.10483 c -0.42468,-1.15766 -0.83488,-2.24554 -0.91157,-2.41751 -0.0767,-0.17198 -0.4296,-1.13415 -0.78426,-2.13816 l -0.64484,-1.82547 1.13204,-2.16126 c 0.62262,-1.18869 1.46445,-2.81388 1.87074,-3.61154 0.40629,-0.79766 0.809269,-1.53638 0.895509,-1.6416 0.15042,-0.1835 0.24332,-0.62935 0.20532,-0.98529 -0.01,-0.0928 -0.23963,-0.51487 -0.5105,-0.93806 -0.270869,-0.42318 -0.669179,-1.05084 -0.885119,-1.39479 -0.21594,-0.34396 -0.59232,-0.91829 -0.83641,-1.2763 -0.24408,-0.35801 -0.44379,-0.70314 -0.44379,-0.76695 0,-0.0638 -0.17589,-0.34663 -0.39086,-0.62847 -0.21497,-0.28184 -0.39085,-0.54897 -0.39085,-0.59362 0,-0.0446 -0.32505,-0.57104 -0.72234,-1.16975 l -0.72233,-1.08857 -2.678112,0.0814 c -1.472959,0.0447 -3.622953,0.12673 -4.777763,0.18218 l -2.099655,0.10083 -0.774622,1.48525 c -0.426042,0.81689 -0.967694,1.83702 -1.203671,2.26697 -0.235978,0.42994 -0.861223,1.60818 -1.389435,2.61832 l -0.960384,1.83662 0.318705,0.58669 c 0.175287,0.32268 0.673068,1.14952 1.106178,1.83742 0.433111,0.68791 0.999556,1.60251 1.258768,2.03245 0.259211,0.42994 0.673082,1.09831 0.919712,1.48525 0.24663,0.38695 0.634839,1.02014 0.862686,1.40708 l 0.414268,0.70354 -0.638838,2.45562 c -0.711724,2.73579 -0.690661,2.62551 -0.501463,2.62551 0.179359,0 0.401187,-0.57528 0.813864,-2.11062 0.655022,-2.43698 0.716367,-2.61617 0.936722,-2.73607 0.122463,-0.0666 2.137562,-0.17133 4.477999,-0.23265 l 4.255341,-0.11148 0.23041,0.52387 c 0.12672,0.28814 0.48741,1.22742 0.80152,2.0873 0.69599,1.90523 1.40678,3.80478 1.8076,4.83066 l 0.29919,0.76577 -0.66541,0.62286 c -0.36597,0.34258 -1.17978,1.01812 -1.80846,1.5012 -0.62868,0.48308 -1.51368,1.16279 -1.96668,1.51046 -0.45299,0.34766 -1.14188,0.89291 -1.530862,1.21165 -0.388982,0.31874 -0.845182,0.57953 -1.013778,0.57953 -0.168595,0 -1.321402,-0.66836 -2.561793,-1.48525 -2.176889,-1.43364 -3.126128,-1.89228 -2.387309,-1.15346 0.182485,0.18248 0.576102,0.48149 0.874705,0.66445 0.298603,0.18297 1.305525,0.84273 2.237604,1.46615 0.93208,0.62341 1.785089,1.13348 1.895577,1.13348 0.110487,0 0.492643,-0.26383 0.849235,-0.58629 0.356592,-0.32245 0.945801,-0.79734 1.309351,-1.05531 0.68012,-0.48258 1.44645,-1.07409 3.36313,-2.59589 1.64289,-1.30441 1.69022,-1.32206 2.761659,-1.03021 0.49945,0.13605 1.40057,0.39799 2.00249,0.58209 1.207,0.36917 2.76483,0.81494 4.25583,1.21779 0.53496,0.14454 1.09779,0.37135 1.25074,0.50402 0.18737,0.16253 0.63512,1.65144 1.37248,4.5639 l 1.0944,4.32268 0.78171,0.23843 c 3.90058,1.18969 4.45576,1.32038 4.45576,1.04892 z m -29.1834,-22.511 c -0.310942,-0.48444 -0.766574,-1.17371 -1.012516,-1.53172 -0.245943,-0.35801 -0.447168,-0.70314 -0.447168,-0.76696 0,-0.0638 -0.175885,-0.34662 -0.390856,-0.62846 -0.21497,-0.28184 -0.390855,-0.5584 -0.390855,-0.61457 0,-0.0562 -0.199707,-0.39505 -0.443793,-0.75306 -0.913044,-1.33919 -1.264192,-1.91242 -1.401635,-2.28807 -0.145775,-0.39842 0.05098,-0.84257 1.871893,-4.22569 0.347116,-0.64491 0.944561,-1.7814 1.327656,-2.52554 l 0.696537,-1.35298 0.733521,-0.0682 c 0.403437,-0.0375 1.753654,-0.0802 3.000484,-0.0948 1.246829,-0.0146 2.935325,-0.0651 3.752213,-0.11214 0.81689,-0.0471 1.55791,-0.0288 1.64672,0.0407 0.0888,0.0694 0.39863,0.51318 0.68848,0.98612 1.26851,2.06974 1.98605,3.2047 2.53665,4.01228 0.24408,0.35801 0.44379,0.6928 0.44379,0.74398 0,0.0512 0.21106,0.38442 0.46902,0.74053 0.25797,0.35611 0.469029,0.81134 0.469029,1.01162 0,0.20029 -0.483979,1.29781 -1.075519,2.43894 -0.59153,1.14113 -1.36724,2.6359 -1.72379,3.32172 -0.35655,0.68582 -0.71681,1.31549 -0.80059,1.39927 -0.0838,0.0838 -0.15231,0.27142 -0.15231,0.417 0,0.14558 -0.1019,0.30379 -0.22643,0.35158 -0.12454,0.0478 -1.79545,0.13046 -3.713132,0.18371 -1.917684,0.0532 -3.892902,0.11902 -4.389374,0.14617 l -0.902676,0.0494 z m 8.455241,-0.80545 c 0.20141,-0.20141 0.30663,-0.19591 -2.957695,-0.15463 -3.809588,0.0482 -4.034076,0.065 -4.115146,0.3082 -0.05788,0.17364 0.534863,0.1918 3.424671,0.10496 1.924864,-0.0579 3.56362,-0.17398 3.64817,-0.25853 z m -10.3766,-6.96267 c 0.234725,-0.42539 0.668066,-1.23075 0.962978,-1.78967 0.294913,-0.55892 0.835535,-1.56808 1.201382,-2.24257 0.627809,-1.15745 0.744716,-1.68863 0.26139,-1.18765 -0.216311,0.22421 -0.416335,0.57325 -1.60736,2.80485 -0.344195,0.64491 -0.846679,1.57869 -1.116631,2.07506 -0.269952,0.49637 -0.490822,0.97712 -0.490822,1.06834 0,0.36027 0.383913,0.006 0.789063,-0.72836 z m 13.90711,0.13393 c 0,-0.14586 -0.16649,-0.51522 -0.36997,-0.8208 -0.47291,-0.71019 -2.62242,-4.14479 -2.85603,-4.56351 -0.0975,-0.1748 -0.25582,-0.39633 -0.35177,-0.49228 -0.35934,-0.35934 -0.17463,0.53408 0.21641,1.04676 0.21497,0.28184 0.39086,0.56951 0.39086,0.63927 0,0.0697 0.17588,0.35742 0.39085,0.63926 0.21497,0.28185 0.39086,0.5584 0.39086,0.61457 0,0.0562 0.20134,0.39505 0.44742,0.75306 0.79009,1.14945 1.42868,2.18614 1.42868,2.31932 0,0.0712 0.0704,0.12954 0.15635,0.12954 0.086,0 0.15634,-0.11934 0.15634,-0.26519 z m 25.774419,26.95161 c 1.06272,-1.06966 1.87102,-1.98266 1.79621,-2.02889 -0.18261,-0.11287 -4.27564,3.766 -4.27564,4.05192 0,0.38736 0.44708,0.0226 2.47943,-2.02303 z m -30.824939,-0.43351 c 0.74078,-1.66305 0.75273,-1.70717 0.46217,-1.70717 -0.11593,0 -0.337674,0.28141 -0.492775,0.62536 -0.155101,0.34396 -0.379651,0.62537 -0.498999,0.62537 -0.174078,0 -1.394056,-0.54331 -1.579078,-0.70324 -0.0251,-0.0217 0.07232,-0.33423 0.216488,-0.69453 0.181798,-0.45436 0.212194,-0.70501 0.0992,-0.81801 -0.192402,-0.1924 -0.294715,-0.022 -1.059412,1.76461 -0.603646,1.41033 -0.631822,1.54557 -0.322016,1.54557 0.119645,0 0.330138,-0.28142 0.46776,-0.62537 0.276247,-0.69041 0.485548,-0.7532 1.237658,-0.37132 0.865202,0.43931 0.909586,0.50764 0.652573,1.00465 -0.281704,0.54476 -0.298729,0.97877 -0.03497,0.89144 0.107486,-0.0356 0.490616,-0.7274 0.851401,-1.53736 z m -10.271022,-5.26103 c 0,-0.35679 -0.557285,-0.20836 -1.016225,0.27067 -0.247146,0.25796 -0.562253,0.46902 -0.700239,0.46902 -0.262778,0 -1.566723,-1.23557 -1.566723,-1.48457 0,-0.0791 0.260911,-0.41103 0.579802,-0.73761 0.505793,-0.51798 0.550695,-0.62206 0.351771,-0.81539 -0.198066,-0.1925 -0.428355,-0.0307 -1.75237,1.2316 -0.838386,0.79928 -1.524337,1.56362 -1.524337,1.69855 0,0.50476 0.361886,0.43693 0.99764,-0.18702 0.360684,-0.35398 0.726125,-0.64361 0.812091,-0.64361 0.08597,0 0.502634,0.35162 0.925929,0.78138 l 0.769628,0.78138 -0.658248,0.6707 c -0.681329,0.69423 -0.79812,0.97108 -0.462821,1.09714 0.22411,0.0843 3.244102,-2.8316 3.244102,-3.13224 z m 10.091344,-1.1755 c 0.415158,-0.36545 1.087728,-0.91069 1.494598,-1.21165 1.81481,-1.3424 2.64511,-2.09108 2.49051,-2.24568 -0.10597,-0.10597 -0.35055,0.008 -0.7461,0.34626 -0.32365,0.27715 -0.89688,0.72995 -1.27384,1.00623 -0.37697,0.27629 -1.16164,0.89874 -1.743725,1.38323 -0.582084,0.48449 -1.147954,0.91077 -1.257487,0.94728 -0.203156,0.0677 -0.07114,0.43879 0.156108,0.43879 0.06881,0 0.464778,-0.29901 0.879936,-0.66446 z m -7.788234,-0.93496 c 1.363078,-1.35741 1.695048,-1.84011 1.265513,-1.84011 -0.100975,0 -0.710331,0.51006 -1.354123,1.13348 -0.689644,0.66781 -1.197726,1.05294 -1.236725,0.93743 -0.03641,-0.10783 0.128048,-1.0427 0.365455,-2.07748 0.405365,-1.76686 0.41555,-1.89753 0.167264,-2.14581 -0.248287,-0.24829 -0.361561,-0.16722 -1.860194,1.33142 -1.265946,1.26594 -1.555913,1.6357 -1.402807,1.78881 0.153107,0.1531 0.434027,-0.0464 1.359037,-0.96526 0.641319,-0.63703 1.207464,-1.11682 1.258099,-1.06618 0.05064,0.0506 -0.08708,0.94053 -0.306031,1.97754 -0.61297,2.90318 -0.370192,3.03207 1.744512,0.92616 z M 101.87747,96.347833 c 0.0614,-0.15048 0.10746,-0.94196 0.10235,-1.75885 -0.0108,-1.7295 -0.34054,-2.66301 -1.28852,-3.6482 -0.910799,-0.94656 -1.540429,-1.19841 -2.996089,-1.19841 h -1.25911 l 0.0412,-5.12021 0.0412,-5.1202 22.851789,-0.0396 22.85179,-0.0396 0.0551,5.7461 c 0.0542,5.65146 0.0612,5.75972 0.4259,6.57279 0.47711,1.06358 1.52727,1.99671 2.59721,2.30775 0.59218,0.17215 1.39987,0.22422 2.98413,0.19239 l 2.17218,-0.0436 V 72.075703 49.953275 h -2.4233 c -2.2947,0 -2.46031,0.02074 -3.12056,0.390855 -0.82938,0.464917 -1.75071,1.625224 -2.23456,2.814161 -0.33277,0.817698 -0.35228,1.103398 -0.39786,5.823748 l -0.0479,4.963864 h -10.52597 -10.52597 l -0.0642,-2.38422 c -0.0749,-2.781967 -0.29212,-3.434958 -1.49503,-4.4938 -0.9193,-0.809202 -1.89776,-1.095432 -3.74466,-1.095432 h -1.45687 v -3.538647 c 0,-2.281647 -0.066,-3.759007 -0.18586,-4.158991 -0.23902,-0.797775 -1.37288,-2.058255 -2.16644,-2.408372 l -0.61821,-0.272754 v -2.784072 c 0,-1.53124 0.0271,-2.784073 0.0603,-2.784073 0.0332,0 0.26182,0.105098 0.50812,0.23355 0.37995,0.198162 1.64413,0.233608 8.34309,0.233929 7.55582,3.63e-4 7.9168,-0.01274 8.39581,-0.304807 0.79259,-0.483273 1.02499,-1.099456 0.9594,-2.54374 -0.0547,-1.205147 -0.0737,-1.25796 -0.63861,-1.775645 l -0.58221,-0.533554 h -8.17548 c -7.14641,0 -8.21921,0.03063 -8.52295,0.243378 -0.3471,0.24312 -0.34747,0.242412 -0.34805,-0.664454 -6.8e-4,-1.059621 -0.36222,-1.780249 -1.07914,-2.150981 -1.48299,-0.766888 -2.97223,0.350394 -2.98174,2.237013 -0.003,0.595023 -0.038,0.664235 -0.27703,0.547198 -0.15048,-0.07369 -3.97794,-0.152782 -8.505469,-0.175758 l -8.231858,-0.04178 -0.473782,0.398661 c -0.625535,0.526353 -0.864604,1.302743 -0.768771,2.496623 0.09029,1.124809 0.397058,1.674695 1.127697,2.021406 0.772108,0.366389 15.957613,0.375005 16.664513,0.0095 l 0.46126,-0.238528 v 2.779358 2.779359 l -0.71528,0.379459 c -0.39341,0.208703 -0.95243,0.656497 -1.24226,0.995099 -0.91114,1.064462 -1.01296,1.620512 -1.01296,5.531814 v 3.48985 h -1.4604 c -0.80872,0 -1.78848,0.09874 -2.19561,0.221263 -1.041189,0.313354 -2.024989,1.177297 -2.540529,2.231019 -0.40064,0.818865 -0.43811,1.058971 -0.49883,3.19638 l -0.0657,2.311 -7.602531,0.046 -7.602534,0.046 -1.337505,0.65417 c -2.243811,1.09743 -3.742829,2.92484 -4.284596,5.22322 -0.196709,0.83451 -0.236497,2.56986 -0.238422,10.39884 l -0.0023,9.39717 -1.133481,0.1033 c -0.623415,0.0568 -1.482556,0.21822 -1.909203,0.35869 -0.997811,0.32852 -2.142844,1.47612 -2.490323,2.49592 -0.250918,0.7364 -0.342844,2.90631 -0.153116,3.61428 l 0.09427,0.35177 h 15.386384 c 14.506936,0 15.392766,-0.0156 15.498026,-0.2736 z"
       id="path3" /></g></svg>
