<?xml version="1.0" encoding="UTF-8" standalone="no"?>
<!-- Created with Inkscape (http://www.inkscape.org/) -->

<svg
   width="103.45897mm"
   height="114.2867mm"
   viewBox="0 0 103.45897 114.2867"
   version="1.1"
   id="svg1"
   xml:space="preserve"
   xmlns:inkscape="http://www.inkscape.org/namespaces/inkscape"
   xmlns:sodipodi="http://sodipodi.sourceforge.net/DTD/sodipodi-0.dtd"
   xmlns="http://www.w3.org/2000/svg"
   xmlns:svg="http://www.w3.org/2000/svg"><sodipodi:namedview
     id="namedview1"
     pagecolor="#ffffff"
     bordercolor="#000000"
     borderopacity="0.25"
     inkscape:showpageshadow="2"
     inkscape:pageopacity="0.0"
     inkscape:pagecheckerboard="0"
     inkscape:deskcolor="#d1d1d1"
     inkscape:document-units="mm" /><defs
     id="defs1" /><g
     inkscape:label="Layer 1"
     inkscape:groupmode="layer"
     id="layer1"
     transform="translate(-64.314539,-132.16461)"><path
       style="fill:#ffffff;fill-opacity:1"
       d="m 106.72538,245.89311 v -0.55807 l 3.99019,-0.001 c 7.0978,-0.002 13.86148,-0.38262 20.05063,-1.12834 2.09183,-0.25204 2.07196,-0.25651 2.07507,0.46717 l 0.002,0.39804 -1.14404,0.13505 c -6.96551,0.82224 -14.29931,1.24388 -21.65305,1.24489 l -3.32051,4.5e-4 z m -6.58521,0.26211 c -6.009813,-0.40361 -9.256963,-0.72672 -13.393643,-1.33273 -1.76401,-0.25842 -5.4825,-0.91459 -6.47359,-1.14234 -0.37065,-0.0852 -0.38926,-0.11191 -0.36359,-0.52246 0.0149,-0.23799 0.0732,-0.47885 0.12961,-0.53526 0.0623,-0.0623 0.64271,0.0101 1.47973,0.18462 4.88427,1.01848 11.79598,1.86407 18.00946,2.2033 1.349513,0.0737 2.488423,0.16431 2.530923,0.20142 0.0425,0.0371 0.0484,0.28093 0.0132,0.54183 l -0.0641,0.47435 -0.68289,-0.0195 c -0.37559,-0.0107 -0.90891,-0.0347 -1.18515,-0.0532 z m 38.0089,-2.07777 c -0.0236,-0.0757 -0.0727,-0.31838 -0.10927,-0.53936 l -0.0664,-0.40178 1.59241,-0.30861 c 2.14417,-0.41553 5.51129,-1.26905 7.2847,-1.84657 8.86731,-2.88772 11.18275,-6.18903 6.57493,-9.37441 -2.02625,-1.40074 -5.96297,-2.9134 -10.45799,-4.01839 l -2.43208,-0.59787 0.0686,-0.34277 c 0.12663,-0.63255 0.16915,-0.71097 0.36277,-0.66904 1.84715,0.39993 4.88624,1.22144 6.55342,1.77149 5.26169,1.73597 8.28532,3.68156 9.10818,5.86074 0.32413,0.85842 0.25495,1.97374 -0.17723,2.85707 -1.39133,2.84379 -7.03792,5.42013 -15.97502,7.28886 -2.2713,0.47492 -2.27864,0.47593 -2.32703,0.32064 z m -63.735843,-1.88422 c -4.54332,-1.50774 -7.13938,-2.81679 -8.70264,-4.38828 -0.98123,-0.9864 -1.31792,-1.67612 -1.37812,-2.82312 -0.0455,-0.86775 -0.0259,-0.97083 0.31847,-1.67559 0.68101,-1.39352 2.11363,-2.57831 4.62806,-3.82745 1.13844,-0.56557 3.83866,-1.66709 4.08662,-1.66709 0.0429,0 0.15357,0.22205 0.24604,0.49345 l 0.16814,0.49346 -1.13427,0.41357 c -5.09051,1.85606 -7.77005,4.13613 -7.22773,6.15018 0.51431,1.90999 3.48286,3.84222 8.38155,5.45556 0.89012,0.29315 1.65283,0.56303 1.69491,0.59973 0.11178,0.0975 -0.1576,1.01702 -0.29489,1.00663 -0.064,-0.005 -0.41782,-0.10882 -0.78614,-0.23105 z m 31.175593,0.0185 c -2.94889,-0.1012 -5.680473,-0.26576 -8.518023,-0.51315 -1.94451,-0.16953 -4.54129,-0.47702 -4.61017,-0.5459 -0.0212,-0.0212 -0.004,-0.26871 0.0382,-0.55002 0.0672,-0.4481 0.10627,-0.505 0.31531,-0.45926 0.42219,0.0924 3.1913,0.37888 5.37284,0.55585 8.524723,0.69155 18.413173,0.63824 26.492663,-0.14281 l 0.88476,-0.0855 0.0575,0.50671 c 0.0316,0.27869 0.039,0.52562 0.0164,0.54873 -0.0743,0.0758 -4.74173,0.43981 -7.19342,0.56104 -3.42092,0.16916 -9.76271,0.2305 -12.85599,0.12434 z m 26.75709,-1.70403 c -0.024,-0.0767 -0.073,-0.31768 -0.10892,-0.53543 l -0.0653,-0.39592 1.42389,-0.25782 c 3.2487,-0.58822 6.65169,-1.59209 8.57031,-2.52819 1.17507,-0.57333 2.21053,-1.43921 2.39711,-2.00455 0.55478,-1.68101 -2.83663,-3.52362 -9.0319,-4.90719 -1.81736,-0.40587 -5.5278,-1.06181 -6.00861,-1.06221 -0.21605,-1.9e-4 -0.25089,-0.0587 -0.24942,-0.41877 0.003,-0.77977 -0.0637,-0.77162 2.6372,-0.32099 7.74408,1.29203 12.52168,3.14586 13.54264,5.25487 1.031,2.12976 -0.99917,4.0936 -5.81475,5.62476 -1.43214,0.45537 -3.83558,1.05257 -5.65185,1.40437 -1.73194,0.33546 -1.5856,0.32234 -1.64038,0.14707 z m -48.668753,-0.93016 c -0.79804,-0.21054 -1.92813,-0.5379 -2.51131,-0.72746 -1.51561,-0.49264 -3.84474,-1.66043 -4.54901,-2.28081 -1.33483,-1.17583 -1.57221,-2.39725 -0.69992,-3.60141 0.32733,-0.45188 1.37893,-1.36135 1.57408,-1.36135 0.055,0 0.21774,0.1861 0.36169,0.41354 l 0.26172,0.41354 -0.52311,0.4135 c -1.35985,1.07489 -1.44134,1.71916 -0.35189,2.78201 1.05392,1.02819 3.48458,2.06915 6.77259,2.90046 0.79804,0.20176 1.49388,0.40438 1.54631,0.45025 0.0524,0.0459 0.0606,0.28913 0.0181,0.54057 -0.0551,0.32645 -0.13028,0.4547 -0.26275,0.44857 -0.10203,-0.005 -0.83846,-0.18086 -1.63649,-0.39141 z m 20.536913,-0.72942 c -2.57479,-0.11067 -4.958693,-0.27624 -5.031923,-0.34947 -0.0297,-0.0297 -0.0196,-0.26862 0.0224,-0.53105 l 0.0763,-0.47716 1.350473,0.077 c 4.15539,0.23699 5.82316,0.28336 10.29446,0.28624 l 4.92588,0.003 0.0673,0.25113 c 0.1797,0.67056 0.13566,0.71512 -0.7836,0.79282 -1.13713,0.0961 -8.25836,0.0617 -10.9213,-0.0527 z m 15.55294,-0.65704 c -0.0213,-0.30666 -0.0135,-0.55787 0.0172,-0.55824 0.52386,-0.006 5.63158,-0.50119 6.96426,-0.67473 5.45486,-0.71035 9.35705,-1.94182 9.06316,-2.86019 -0.18777,-0.58676 -2.62792,-1.49124 -5.53574,-2.0519 -1.01289,-0.1953 -1.85316,-0.3647 -1.86727,-0.37644 -0.0141,-0.0117 0.0126,-0.24419 0.0594,-0.51656 0.0802,-0.46689 0.104,-0.49322 0.41629,-0.46027 0.84647,0.0893 3.72117,0.72241 4.70554,1.03627 2.35611,0.75126 3.38036,1.49497 3.38212,2.45577 0.002,1.28445 -2.1519,2.39469 -6.24963,3.22085 -2.50706,0.50547 -6.43722,1.002 -9.31974,1.17746 -0.61388,0.0374 -1.22432,0.0899 -1.35654,0.11675 -0.21685,0.044 -0.24418,-0.006 -0.27903,-0.50877 z m -27.942053,-0.50816 c -4.04191,-0.69481 -6.76862,-1.67904 -7.42968,-2.68182 -0.25712,-0.39004 -0.27848,-1.0523 -0.0483,-1.49743 0.37201,-0.71939 1.88808,-1.45714 4.24118,-2.06384 1.39289,-0.35913 5.04147,-1.02576 5.12641,-0.93665 0.0225,0.0237 0.0586,0.26528 0.0802,0.53695 l 0.0392,0.49395 -1.78582,0.30163 c -3.6906,0.62336 -6.36434,1.50078 -6.74591,2.21376 -0.41983,0.78446 2.91546,1.96793 7.60166,2.69733 l 0.85574,0.1332 -0.0561,0.40473 c -0.0746,0.53852 -0.12438,0.68544 -0.22885,0.67528 -0.048,-0.005 -0.79038,-0.12936 -1.6498,-0.27709 z m 3.62744,-2.56625 c 0,-0.0338 1.32953,-1.86816 2.95451,-4.07634 l 2.954513,-4.01487 -0.67445,-6.38743 c -0.39061,-3.69928 -0.64938,-6.61419 -0.61486,-6.92622 0.12996,-1.17504 1.01376,-2.43125 2.02529,-2.8787 0.41674,-0.18434 0.51423,-0.29549 0.70392,-0.80247 0.44959,-1.20162 0.67953,-2.18143 0.8563,-3.64881 0.60424,-5.01575 2.23334,-10.60337 4.76113,-16.33014 0.57598,-1.30488 0.66558,-1.58992 0.55529,-1.76651 -0.0723,-0.11582 -1.57086,-2.05581 -3.33007,-4.31109 -1.75921,-2.25528 -3.31483,-4.30141 -3.45693,-4.54696 -0.55576,-0.96037 -0.58082,-0.87304 2.74325,-9.56024 1.65237,-4.31832 3.02103,-7.91032 3.04147,-7.98221 0.0205,-0.0719 -0.54042,-0.50233 -1.24638,-0.95652 -15.864523,-10.20656 -41.944533,-27.0372 -42.045423,-27.1338 -0.104,-0.0996 -0.0249,-0.29892 0.34912,-0.87926 l 0.4836,-0.75049 21.75039,14.02793 c 16.522293,10.65606 21.824173,14.02381 22.057333,14.0108 1.44138,-0.0804 1.61482,-0.0636 2.09714,0.20301 0.60483,0.33433 1.08732,1.004 1.19954,1.6649 l 0.0853,0.50226 19.25053,12.4038 c 10.58779,6.82208 19.34556,12.47507 19.46169,12.56219 0.17305,0.1298 0.18855,0.20065 0.0859,0.39248 -0.11659,0.21785 0.003,0.31684 1.72257,1.42728 2.04907,1.32313 1.87682,1.29282 2.35574,0.41456 0.13113,-0.24047 0.2644,-0.3517 0.38405,-0.32054 0.10078,0.0262 2.79941,1.48977 5.99695,3.25228 l 5.81371,3.20456 -0.17087,0.33043 -0.17088,0.33044 -0.357,-0.21543 c -0.19636,-0.11848 -1.18574,-0.66891 -2.19863,-1.22317 -1.0129,-0.55426 -3.39864,-1.86518 -5.30165,-2.91314 l -3.46003,-1.9054 -0.19268,0.24896 c -0.10597,0.13693 -0.17842,0.2953 -0.16099,0.35194 0.0174,0.0566 2.65229,1.78944 5.85526,3.85067 3.20297,2.06123 5.82328,3.77281 5.82291,3.8035 -3.7e-4,0.0307 -0.088,0.1693 -0.19481,0.30802 l -0.19414,0.25222 -4.18422,-2.69534 c -2.30131,-1.48244 -4.94741,-3.186 -5.88021,-3.78569 l -1.69599,-1.09034 -0.17354,0.26484 c -0.24787,0.3783 -0.23159,0.41654 0.35664,0.83744 0.29159,0.20864 2.60291,1.92643 5.13626,3.81731 4.11332,3.07014 4.59388,3.4608 4.49185,3.65144 -0.0628,0.11742 -0.16514,0.24494 -0.22735,0.28339 -0.0996,0.0615 -10.93545,-7.92132 -10.93545,-8.05622 0,-0.0292 0.15428,-0.27727 0.34285,-0.55135 0.18858,-0.27407 0.3254,-0.5507 0.30406,-0.61473 -0.0213,-0.064 -0.84112,-0.63622 -1.82174,-1.27156 -1.74694,-1.13185 -1.7865,-1.15059 -1.95948,-0.9286 -0.17203,0.22075 -0.66666,-0.0892 -19.30917,-12.09849 -10.52293,-6.77878 -19.18827,-12.3576 -19.2563,-12.39739 -0.10551,-0.0617 -1.52867,3.54623 -5.08413,12.88905 l -0.19898,0.52285 2.37116,3.04878 c 1.30413,1.67684 2.5031,3.22458 2.66437,3.43944 0.29057,0.38713 0.29182,0.39717 0.13924,1.11613 -0.0847,0.39902 -0.15501,1.23227 -0.15629,1.85168 -0.003,1.42668 0.26796,2.53858 0.96191,3.94803 0.43524,0.88401 0.68553,1.22258 1.53579,2.07748 1.14105,1.14728 2.12492,1.76165 3.58292,2.2373 1.16056,0.37863 3.17501,0.48411 4.35293,0.22795 l 0.78129,-0.16991 13.43238,8.94675 c 7.3878,4.92071 13.57543,9.1097 13.75029,9.30885 0.97708,1.11283 0.57994,2.90813 -0.79892,3.61157 -0.50116,0.25567 -1.39241,0.28537 -1.9221,0.0641 -0.20087,-0.0839 -5.7993,-3.77555 -12.44095,-8.2036 -6.64165,-4.42806 -12.11357,-8.04902 -12.15982,-8.04658 -0.14457,0.008 -1.76223,1.568 -2.71459,2.61849 -1.04664,1.15449 -1.90109,2.36951 -2.30416,3.27649 -0.76521,1.72185 -1.1486,4.79315 -0.96442,7.72594 l 0.0952,1.51527 4.47695,3.926 c 4.03754,3.54066 4.51271,3.99309 4.84126,4.60951 0.63454,1.19052 0.61482,1.45747 -0.45104,6.10433 l -0.92631,4.03848 h -3.77161 c -2.96821,0 -3.76148,-0.0297 -3.72409,-0.13952 0.0261,-0.0767 0.37813,-1.59607 0.78224,-3.37631 0.40411,-1.78024 0.75875,-3.31685 0.78809,-3.41469 0.0374,-0.12491 -1.23932,-1.31203 -4.28642,-3.98544 l -4.33975,-3.80754 -1.25042,-0.57392 c -0.68773,-0.31566 -1.27655,-0.54779 -1.3085,-0.51584 -0.0319,0.0319 0.14915,2.03835 0.40242,4.45869 0.5016,4.79329 0.50002,4.98574 -0.0489,5.96918 -0.14561,0.26088 -1.07769,1.57931 -2.07131,2.92986 l -1.80658,2.45553 h -4.507473 c -2.47911,0 -4.50747,-0.0277 -4.50747,-0.0615 z m -14.67081,-4.41965 c -0.1019,-0.25468 -0.14502,-0.50095 -0.0958,-0.54727 0.13589,-0.12796 1.7642,-0.6192 3.47185,-1.04742 1.60466,-0.40238 4.58919,-1.00537 4.64712,-0.93889 0.0186,0.0214 0.0669,0.26704 0.10734,0.54592 l 0.0735,0.50706 -1.42645,0.25829 c -1.69436,0.30679 -4.5605,1.01073 -5.7174,1.40422 -0.45461,0.15462 -0.83743,0.28113 -0.8507,0.28113 -0.0133,0 -0.10751,-0.20837 -0.20941,-0.46304 z m -4.24138,-2.91327 c -0.0234,-0.0767 -0.0922,-0.29622 -0.15304,-0.48773 l -0.11058,-0.34822 0.85414,-0.2327 c 2.27594,-0.62008 6.2283,-1.3902 9.78323,-1.90627 2.1854,-0.31726 6.11462,-0.79182 6.5573,-0.79198 0.15925,-5e-5 0.19532,0.10016 0.19532,0.54261 v 0.54267 l -0.865,0.0756 c -4.20046,0.36696 -11.04015,1.49164 -14.67648,2.41333 -1.49208,0.3782 -1.52712,0.38246 -1.58489,0.19272 z m 42.968923,-32.68096 c -2.56135,-0.39824 -4.72903,-1.98334 -5.86824,-4.29107 -0.61856,-1.25305 -0.81987,-2.11632 -0.81987,-3.51583 0,-1.397 0.20061,-2.25958 0.8177,-3.51583 1.73692,-3.53601 5.86973,-5.21042 9.64283,-3.90681 1.02126,0.35285 1.86087,0.86706 2.72855,1.67105 1.66506,1.54285 2.50601,3.47542 2.50264,5.75129 -0.003,2.20926 -0.70829,3.92569 -2.25116,5.48062 -1.08679,1.09527 -2.05589,1.69122 -3.36835,2.07136 -1.00745,0.2918 -2.44941,0.40055 -3.3841,0.25522 z m -19.48057,-0.83843 c -2.056003,-0.44523 -3.801763,-2.05914 -3.990583,-3.68917 -0.0783,-0.67565 0.11972,-0.69342 0.7312,-0.0656 0.66865,0.68648 1.13056,0.84656 2.25497,0.78147 0.69309,-0.0401 1.028573,-0.1283 1.698343,-0.44637 1.04959,-0.49844 2.12992,-1.21126 3.24012,-2.13785 0.94731,-0.79065 1.7038,-1.35114 2.33491,-1.72997 l 0.40924,-0.24566 0.71526,0.9136 0.71527,0.9136 -0.76176,1.76489 c -0.41897,0.97069 -0.76176,1.81486 -0.76176,1.87593 0,0.16116 -1.14144,0.91075 -2.18672,1.43605 -1.58012,0.79407 -2.8187,0.97123 -4.39849,0.62912 z"
       id="path2"
       sodipodi:nodetypes="cccsccsscccsssscssccsccsccsssscscssssssssscssscsssscsssssssscscssssscssssscsssssssssssscssssccsscsccsccssccscssssssscssssscssscccssscscccsscssssssssssccsccsssscssscssscccssscssssscsscssssssssssssscssscsssscssssscssscssscssscscssssscsssscssscssssssscsssscsssssssssscsssssssssscccsssss" /></g></svg>
