<?xml version="1.0" encoding="UTF-8" standalone="no"?>
<!-- Created with Inkscape (http://www.inkscape.org/) -->

<svg
   width="177.11224mm"
   height="77.041275mm"
   viewBox="0 0 177.11224 77.041275"
   version="1.1"
   id="svg1"
   xmlns:inkscape="http://www.inkscape.org/namespaces/inkscape"
   xmlns:sodipodi="http://sodipodi.sourceforge.net/DTD/sodipodi-0.dtd"
   xmlns="http://www.w3.org/2000/svg"
   xmlns:svg="http://www.w3.org/2000/svg">
  <sodipodi:namedview
     id="namedview1"
     pagecolor="#ffffff"
     bordercolor="#000000"
     borderopacity="0.25"
     inkscape:showpageshadow="2"
     inkscape:pageopacity="0.0"
     inkscape:pagecheckerboard="0"
     inkscape:deskcolor="#d1d1d1"
     inkscape:document-units="mm" />
  <defs
     id="defs1" />
  <g
     inkscape:label="Layer 1"
     inkscape:groupmode="layer"
     id="layer1"
     transform="translate(-16.160984,-90.437826)">
    <path
       style="fill:#ffffff;fill-opacity:1;stroke-width:0.264583"
       d="m 25.851355,167.14628 c -6.892925,-0.53184 -9.69037,-1.30368 -9.69037,-2.67364 0,-1.5803 1.099553,-1.99343 10.759723,-4.04268 9.575623,-2.03131 13.801238,-3.29088 17.991667,-5.36294 3.168269,-1.56663 4.576087,-2.64001 8.643057,-6.58995 6.41342,-6.22888 7.95318,-7.01207 14.59949,-7.42601 5.7372,-0.35729 11.0622,-1.42624 21.80006,-4.37608 4.59454,-1.26219 9.3922,-2.46081 10.661458,-2.66356 2.49439,-0.39848 6.83457,-1.89597 10.32975,-3.56407 1.44917,-0.69162 2.73552,-1.66766 3.80645,-2.88821 1.82977,-2.0854 5.31627,-8.77382 5.00135,-9.59448 -0.11384,-0.29665 -0.0655,-0.53936 0.10737,-0.53936 0.1729,0 0.4922,-0.53888 0.70957,-1.19752 0.39536,-1.19796 1.09368,-1.60986 2.7463,-1.61988 0.64783,-0.004 0.79375,0.18974 0.79375,1.05351 0,0.58208 -0.15875,1.05833 -0.35277,1.05833 -0.19403,0 -0.35282,0.11907 -0.35286,0.26459 -9e-5,0.31113 17.35196,-0.59368 17.69732,-0.92281 0.12912,-0.12305 -0.27855,-2.51749 -0.90593,-5.32099 -0.62738,-2.8035 -1.23103,-4.94663 -1.34141,-4.7625 -0.11041,0.18412 -0.31443,1.92227 -0.45342,3.86255 -0.13896,1.94027 -0.37677,4.16277 -0.52845,4.93889 l -0.2758,1.41111 -0.0169,-1.41111 c -0.009,-0.77612 0.17312,-3.5008 0.40545,-6.05485 0.2323,-2.55406 0.32729,-4.58496 0.21103,-4.51311 -0.11623,0.0718 -1.21346,2.71715 -2.43824,5.87846 -2.3622,6.09712 -2.38032,6.13726 -2.64935,5.86823 -0.0955,-0.0955 0.40029,-1.59037 1.1017,-3.32199 2.03904,-5.03396 3.02871,-7.76167 2.67824,-7.38174 -0.17896,0.19402 -1.96609,2.77371 -3.97139,5.73263 -2.00531,2.95893 -3.77958,5.37987 -3.94285,5.37987 -0.16327,0 1.68389,-2.90991 4.10482,-6.46646 3.07171,-4.5126 4.34708,-6.6753 4.22096,-7.15762 -0.11142,-0.42606 0.0987,-0.94412 0.54795,-1.35063 0.60499,-0.54751 0.87815,-0.59136 1.60919,-0.25828 0.66842,0.30456 0.88051,0.6697 0.88051,1.51594 0,0.80475 0.98102,2.66677 3.5278,6.69586 1.94026,3.06962 3.52776,5.66701 3.52776,5.77199 0,0.10498 -0.44077,0.19086 -0.97948,0.19086 -0.89641,0 -1.22936,-0.44894 -3.92436,-5.29166 -1.61964,-2.91042 -2.9873,-5.29167 -3.03921,-5.29167 -0.0519,0 0.19936,1.30969 0.5584,2.91042 0.35904,1.60073 0.92043,4.14073 1.24754,5.64444 0.70244,3.22918 -0.49625,2.96443 9.93979,2.19529 16.13243,-1.18896 33.43756,-3.01167 39.50969,-4.16147 l 2.56652,-0.48598 -2.72029,2.5049 c -2.88994,2.66112 -6.32362,7.01197 -7.74049,9.80803 l -0.85775,1.6927 h -27.89442 -27.89439 l -1.51099,-1.66894 -1.51099,-1.66894 -0.4247,2.63908 c -1.6574,10.29892 -5.53996,18.2587 -12.06526,24.73544 -3.78174,3.75356 -7.5871,6.31936 -13.542448,9.13106 -9.7831,4.61893 -18.06632,6.61961 -34.20742,8.26225 -11.44275,1.16451 -28.220067,1.56419 -37.052687,0.8827 z m 1.81265,-0.89011 c -0.117772,-0.30692 -0.21413,-0.62442 -0.21413,-0.70557 0,-0.0811 -0.471268,-0.14753 -1.047263,-0.14753 -0.767083,0 -0.995053,0.13605 -0.852117,0.50856 0.168542,0.43921 0.625776,0.63211 2.025316,0.85452 0.16628,0.0265 0.205968,-0.20307 0.08819,-0.50998 z m 2.255313,-0.14753 c -0.363077,-0.67842 -2.116666,-1.02913 -2.116666,-0.42334 0,0.54936 0.857562,1.1289 1.670468,1.1289 0.714483,0 0.773692,-0.0936 0.446198,-0.70556 z m 2.293057,0 c -0.351187,-0.38807 -1.016376,-0.70557 -1.478201,-0.70557 -0.730361,0 -0.790519,0.0919 -0.462079,0.70557 0.25373,0.47408 0.738656,0.70556 1.478201,0.70556 1.078251,0 1.087633,-0.0143 0.462079,-0.70556 z m 2.58314,-0.22305 c -0.731737,-0.73173 -1.131075,-0.87778 -1.883664,-0.68889 -0.922819,0.23161 -0.934016,0.26297 -0.331623,0.92861 0.396777,0.43841 1.081627,0.68889 1.883666,0.68889 h 1.260221 z m 2.532137,0.0466 c -0.526688,-0.56063 -1.214118,-0.88194 -1.886876,-0.88194 h -1.058334 l 0.828543,0.88194 c 0.526687,0.56062 1.214117,0.88196 1.886876,0.88196 h 1.058333 z m 2.613392,0 c -0.43724,-0.66731 -0.883446,-0.88194 -1.833515,-0.88194 h -1.255643 l 0.828542,0.88194 c 0.507728,0.54046 1.217676,0.88196 1.833518,0.88196 0.990883,0 0.996871,-0.0124 0.427098,-0.88196 z m 2.501884,-0.17637 c -0.685413,-0.71544 -1.35686,-1.05834 -2.07228,-1.05834 h -1.058333 l 1.013947,1.05834 c 0.685416,0.7154 1.356862,1.05833 2.072283,1.05833 h 1.058333 z m 2.58699,-0.2235 c -1.068919,-1.06891 -1.442111,-1.24155 -2.246997,-1.03954 l -0.96519,0.24225 0.995961,1.03955 c 0.736015,0.76824 1.322485,1.03957 2.246997,1.03957 h 1.251038 z m 5.821734,0.92904 c 0.64242,0 0.58844,-0.14142 -0.47122,-1.23471 -0.91882,-0.94797 -1.483488,-1.23473 -2.431464,-1.23473 h -1.234723 l 1.215266,1.32292 1.215265,1.32291 -1.410644,-1.26243 c -1.149784,-1.02896 -1.601036,-1.22468 -2.440199,-1.05833 l -1.029552,0.2041 1.351992,1.18655 c 1.229989,1.07947 1.494469,1.16702 2.930874,0.97012 0.868385,-0.11901 1.905365,-0.2164 2.304405,-0.2164 z M 23.72243,166.07091 c 0.336291,0.54414 1.705695,0.49869 1.522405,-0.0505 -0.096,-0.28765 -0.953545,-0.45418 -2.466301,-0.47895 -1.275524,-0.0209 -2.571903,-0.13496 -2.880841,-0.25352 -0.308941,-0.11854 -0.561708,-0.0618 -0.561708,0.12618 0,0.18793 0.198438,0.35943 0.440973,0.38113 1.749761,0.15647 2.879246,0.34097 3.03384,0.49556 0.09964,0.0996 0.291224,0.003 0.425743,-0.21457 0.178173,-0.28829 0.310103,-0.28975 0.485889,-0.005 z m 29.303832,-1.02066 c -0.95845,-0.98155 -1.67829,-1.4111 -2.36465,-1.4111 -1.30562,0 -1.24442,0.40622 0.26026,1.72733 0.83354,0.73187 1.61757,1.09488 2.36465,1.09488 h 1.11766 z m 2.93545,1.18221 c 0.80519,-0.21563 0.79669,-0.24188 -0.51257,-1.58268 -0.9183,-0.94041 -1.63748,-1.36342 -2.31808,-1.36342 -0.54271,0 -0.98674,0.11236 -0.98674,0.24971 0,0.29699 2.52698,2.92743 2.80562,2.92047 0.10614,-0.003 0.56144,-0.10348 1.01177,-0.22408 z m 2.88539,-0.25569 c 0,-0.0725 -0.59879,-0.78687 -1.33064,-1.5875 -0.98094,-1.07312 -1.60287,-1.45568 -2.36651,-1.45568 h -1.03587 l 1.55802,1.5875 c 0.94852,0.96647 1.87429,1.5875 2.3665,1.5875 0.44467,0 0.8085,-0.0593 0.8085,-0.13182 z m 2.39683,-0.22095 c 0.37971,0 0.006,-0.5782 -1.10007,-1.7009 -1.42629,-1.44809 -1.83533,-1.67743 -2.75178,-1.54292 l -1.07645,0.15798 1.69987,1.72583 c 0.95471,0.9693 1.90881,1.64565 2.17653,1.54291 0.26216,-0.10062 0.73552,-0.1829 1.0519,-0.1829 z m 2.54205,-0.19913 c 0,-0.38669 -3.00352,-3.68101 -3.35138,-3.67585 -0.19403,0.003 -0.59032,0.15539 -0.88063,0.3389 -0.43382,0.27427 -0.24792,0.61894 1.04359,1.93487 0.95868,0.97684 1.88669,1.60121 2.37993,1.60121 0.44467,0 0.80849,-0.0896 0.80849,-0.19913 z m -45.251097,-0.36674 c -0.117226,-0.11724 -0.421497,-0.12978 -0.676159,-0.0279 -0.281421,0.11261 -0.197829,0.19621 0.213138,0.21315 0.371888,0.0153 0.580247,-0.0681 0.463021,-0.18529 z m 49.058477,-0.0776 1.51431,-0.23844 -1.90666,-1.88021 c -1.55836,-1.53673 -2.09278,-1.85897 -2.92543,-1.76387 l -1.01876,0.11631 1.73071,1.94027 1.73072,1.94029 -1.84393,-1.85208 c -1.69937,-1.70688 -2.90341,-2.27272 -3.33841,-1.56888 -0.0963,0.15579 0.46233,1.02892 1.24135,1.9403 1.50709,1.76313 1.78858,1.84301 4.8161,1.36631 z m 8.27526,-1.10638 c 0.53358,-0.008 0.97014,-0.12846 0.97014,-0.26837 0,-0.64841 -4.0975,-4.33173 -4.81883,-4.33173 -1.38149,0 -1.25997,0.65937 0.47682,2.58733 l 1.69618,1.88288 -1.98202,-2.01869 c -1.64761,-1.67809 -2.13864,-1.98874 -2.91041,-1.84121 -0.51062,0.0976 -0.9284,0.27305 -0.9284,0.38984 0,0.11681 0.83343,1.08529 1.85208,2.15217 1.01864,1.06691 1.47029,1.62751 1.00366,1.24582 -0.46664,-0.38169 -1.43131,-1.3117 -2.14372,-2.06669 -1.18246,-1.25312 -1.38512,-1.34199 -2.32657,-1.02026 l -1.03129,0.35243 1.94028,1.94479 1.94028,1.94477 2.64583,-0.46953 c 1.45521,-0.25826 3.08239,-0.47585 3.61597,-0.48355 z m -57.59097,0.33877 c 0,-0.19402 -0.357188,-0.3416 -0.79375,-0.32798 -0.757381,0.0236 -0.761421,0.0387 -0.0882,0.32798 0.388056,0.16677 0.745244,0.31435 0.79375,0.32798 0.04851,0.0137 0.0882,-0.13394 0.0882,-0.32798 z m 1.76389,0 c 0,-0.19402 -0.3175,-0.35277 -0.705557,-0.35277 -0.388056,0 -0.705556,0.15875 -0.705556,0.35277 0,0.19404 0.3175,0.35279 0.705556,0.35279 0.388057,0 0.705557,-0.15875 0.705557,-0.35279 z m 4.233333,-0.17637 c 0,-0.32928 -0.333179,-0.52917 -0.881946,-0.52917 -0.485069,0 -0.884375,0.19844 -0.887347,0.44096 -0.004,0.32443 -0.08558,0.31443 -0.308734,-0.0378 -0.191191,-0.30173 -0.582356,-0.39016 -1.058053,-0.23918 -1.245595,0.39534 -0.468381,0.89431 1.39301,0.89431 1.314209,0 1.74307,-0.1302 1.74307,-0.52916 z m 4.43647,-0.0575 c -0.111726,-0.29115 -0.203137,-0.67514 -0.203137,-0.85328 0,-0.57463 -1.364401,-0.34394 -1.735632,0.29342 -0.199559,0.34263 -0.364355,0.42111 -0.370308,0.1764 -0.0059,-0.24255 -0.407602,-0.44098 -0.892673,-0.44098 -0.638886,0 -0.881943,0.18938 -0.881943,0.68714 0,0.60677 0.250809,0.68596 2.143416,0.67691 1.758145,-0.008 2.106901,-0.10541 1.940277,-0.53961 z m 2.111832,-0.20707 -0.202022,-0.79375 0.408545,0.79375 c 0.524431,1.01889 2.654668,1.18674 2.238727,0.17638 -0.139787,-0.33954 -0.337764,-0.90943 -0.439951,-1.26641 -0.14192,-0.49577 -0.403204,-0.59877 -1.106504,-0.43619 -0.506389,0.11708 -1.283097,0.26882 -1.726012,0.33721 -1.075396,0.16608 -1.242605,0.38233 -0.967025,1.25061 0.153553,0.48379 0.531529,0.73215 1.114319,0.73215 0.73928,0 0.849265,-0.1284 0.679923,-0.79375 z m 5.031182,0.25353 c 0.06282,-0.0549 -0.1397,-0.59079 -0.450032,-1.19089 -0.648092,-1.25328 -2.310009,-1.58713 -2.310009,-0.46405 0,1.14802 1.040345,2.2476 1.882071,1.98919 0.420069,-0.12896 0.815155,-0.27938 0.87797,-0.33425 z m 2.471071,-0.0771 c -0.06564,-0.14553 -0.351941,-0.86834 -0.636217,-1.60626 -0.455094,-1.18132 -0.623435,-1.31493 -1.408629,-1.11784 -1.195771,0.30012 -1.183349,0.25678 -0.490215,1.71029 0.493575,1.03502 0.804254,1.27839 1.632019,1.27839 0.562317,0 0.968685,-0.11906 0.903042,-0.26458 z m 2.181241,-0.0882 c 0.164499,0 -0.100182,-0.71438 -0.58818,-1.5875 -0.913611,-1.63462 -2.239391,-2.20967 -2.236742,-0.97015 0.0024,1.07209 1.381466,2.99678 1.982216,2.76625 0.298989,-0.11473 0.678206,-0.2086 0.842706,-0.2086 z m 2.818204,-0.1951 c 0,-0.10732 -0.396875,-0.77918 -0.881947,-1.49302 -0.485068,-0.71385 -0.881943,-1.49916 -0.881943,-1.74517 0,-0.5076 -0.997344,-0.58692 -1.708962,-0.13591 -0.389914,0.24712 -0.36639,0.51276 0.132286,1.49391 0.917014,1.80422 1.22074,2.07529 2.325428,2.07529 0.558324,0 1.015138,-0.0878 1.015138,-0.1951 z m 2.461598,-0.42225 c -0.0043,-0.14552 -0.318283,-0.66146 -0.697711,-1.14655 -0.379426,-0.48506 -0.693397,-1.02481 -0.697709,-1.19946 -0.0043,-0.17462 0.451302,0.31634 1.012481,1.09101 0.873008,1.20515 1.172011,1.38626 2.070867,1.25434 l 1.050539,-0.15418 -1.188921,-1.9744 c -0.653907,-1.08593 -1.188924,-2.2007 -1.188924,-2.47729 0,-0.34933 -0.242342,-0.43791 -0.79375,-0.29014 -0.436562,0.117 -0.930021,0.21489 -1.096576,0.21754 -0.166555,0.003 -0.210463,0.44138 -0.09757,0.97496 0.187034,0.884 0.17126,0.90252 -0.177712,0.20852 -0.329846,-0.65596 -0.521602,-0.71326 -1.382438,-0.41317 -0.892995,0.31128 -0.963009,0.44431 -0.657203,1.24864 0.703101,1.84928 1.739362,2.92476 2.818161,2.92476 0.568873,0 1.030783,-0.11906 1.026466,-0.26458 z m 32.906479,0.0724 c 0.35225,-0.13515 -0.16702,-0.87326 -1.75056,-2.48828 -1.72272,-1.75696 -2.41338,-2.24469 -2.94138,-2.07711 -0.37952,0.12044 -0.69003,0.3429 -0.69003,0.4943 0,0.39444 4.11186,4.26328 4.53107,4.26328 0.19257,0 0.57547,-0.0865 0.8509,-0.19219 z m -58.65141,-0.51337 c 0,-0.44202 -0.374383,-0.44202 -1.058334,0 -0.427905,0.27654 -0.377274,0.343 0.264584,0.34737 0.436562,0.003 0.79375,-0.15335 0.79375,-0.34737 z m 3.219095,0 c 0.415446,0 0.661458,-0.25014 0.661458,-0.67255 0,-0.49884 -0.18221,-0.62486 -0.705554,-0.488 -0.388056,0.10147 -0.705556,0.29724 -0.705556,0.43503 0,0.1378 -0.47625,0.18063 -1.058333,0.0952 -0.829649,-0.12176 -1.058334,-0.0227 -1.058334,0.45799 0,0.49874 0.20591,0.57211 1.102432,0.3928 0.606335,-0.12125 1.400085,-0.22047 1.763887,-0.22047 z m 27.398715,-0.17577 c 0.0564,-0.0484 -0.23034,-0.70342 -0.63717,-1.45547 -0.40683,-0.75205 -0.53235,-1.07236 -0.27892,-0.71181 1.4978,2.13101 1.77498,2.36546 2.5247,2.13535 1.07759,-0.33073 1.07582,-0.28832 0.0782,-1.86862 -0.49907,-0.7906 -0.90741,-1.55784 -0.90741,-1.705 0,-0.14716 0.51819,0.52438 1.15154,1.4923 0.63334,0.9679 1.26834,1.72016 1.41111,1.67166 0.14276,-0.0485 0.57052,-0.0882 0.95056,-0.0882 0.63903,0 0.61381,-0.12597 -0.33554,-1.67568 -0.56458,-0.92163 -1.12007,-2.15194 -1.23441,-2.73402 -0.13855,-0.70533 0.017,-0.50951 0.46633,0.58706 0.37082,0.90495 1.00476,2.1096 1.40876,2.67694 0.72752,1.02172 0.75406,1.02817 2.77962,0.67641 1.1248,-0.19534 2.08869,-0.38523 2.14199,-0.42201 0.0533,-0.0368 -0.38314,-1.08156 -0.96986,-2.3218 -0.58672,-1.24023 -1.0557,-2.49306 -1.04219,-2.7841 0.0135,-0.29104 0.23248,0.0351 0.48657,0.72482 0.96819,2.62806 1.96541,4.21405 2.64965,4.21405 1.09096,0 1.12268,-0.50956 0.16231,-2.60728 -0.5204,-1.13671 -0.96322,-2.8392 -1.04204,-4.00625 l -0.13706,-2.02951 0.32888,2.05036 c 0.18089,1.12771 0.75666,3.00361 1.2795,4.16865 0.87678,1.95373 1.02136,2.10052 1.86131,1.8897 0.50088,-0.12573 0.94526,-0.26315 0.98752,-0.30541 0.0422,-0.0423 -0.31461,-0.85 -0.79303,-1.79498 -0.47842,-0.94501 -0.86243,-1.96908 -0.85335,-2.27576 0.009,-0.30665 0.2981,0.15682 0.64227,1.02994 1.04231,2.64419 1.41442,3.05917 2.58855,2.88684 0.86091,-0.12634 1.01189,-0.28546 0.85671,-0.90276 -0.17577,-0.69918 -0.15663,-0.70694 0.28573,-0.11588 0.34266,0.45786 0.72905,0.56951 1.39356,0.40275 0.5057,-0.12692 0.91946,-0.27562 0.91946,-0.33042 0,-0.0548 -0.31402,-0.79163 -0.69781,-1.63742 -0.3838,-0.84582 -0.69642,-1.77597 -0.69472,-2.06701 0.002,-0.29104 0.3562,0.34396 0.78779,1.41111 0.54467,1.34678 0.99996,1.96786 1.48847,2.03049 1.44218,0.18486 1.61698,-0.36806 0.6932,-2.19276 -0.47926,-0.94666 -0.86076,-2.05148 -0.84778,-2.45515 0.0135,-0.41995 0.21659,-0.11753 0.47469,0.70686 0.78234,2.49894 1.59207,3.58164 2.5427,3.39992 0.96921,-0.18529 0.99237,-0.29638 0.3104,-1.48936 -0.27729,-0.48507 -0.50277,-1.04069 -0.50107,-1.23471 0.002,-0.19404 0.31736,0.24252 0.70148,0.97012 0.71477,1.35395 1.16415,1.56459 2.0897,0.97944 0.41908,-0.26496 0.43704,-0.42188 0.0882,-0.77071 -0.24091,-0.24093 -0.43802,-0.58261 -0.43802,-0.75933 0,-0.17671 0.29071,0.0377 0.64603,0.47652 0.50095,0.61865 0.85822,0.74456 1.59082,0.56068 l 0.94478,-0.23712 -0.70887,-1.38949 c -0.38988,-0.76425 -0.7037,-1.59427 -0.69737,-1.84454 0.006,-0.25027 0.34407,0.29903 0.75053,1.22068 0.55979,1.26926 0.92776,1.67569 1.5172,1.67569 1.1294,0 1.285,-0.31732 0.70531,-1.43833 -0.2833,-0.54785 -0.50808,-1.12303 -0.49951,-1.27818 0.009,-0.15518 0.33261,0.31853 0.72007,1.05267 0.38746,0.73412 0.817,1.27453 0.95455,1.20092 0.13754,-0.0736 0.5227,-0.23074 0.8559,-0.34914 0.55284,-0.19646 0.56056,-0.32367 0.0882,-1.45418 -0.2847,-0.68138 -0.50511,-1.44243 -0.48979,-1.69119 0.018,-0.29313 0.0962,-0.26609 0.22221,0.0769 0.97514,2.65486 1.10377,2.82099 1.9351,2.49928 0.4474,-0.17314 0.76242,-0.5285 0.70006,-0.78967 -0.0848,-0.35515 -0.0106,-0.37399 0.29433,-0.0747 0.22425,0.22011 0.71184,0.32065 1.08353,0.22344 0.80854,-0.21143 0.79609,-0.0732 0.14664,-1.62753 -1.06342,-2.54511 -0.24957,-5.83047 2.15012,-8.67955 0.75713,-0.89892 0.85605,-1.15237 0.37867,-0.97015 -0.35542,0.13568 -0.86517,0.2467 -1.13279,0.2467 -0.62956,0 -1.81012,1.25952 -2.64524,2.8222 -0.36292,0.67911 -0.66628,1.07598 -0.67413,0.88196 -0.008,-0.19404 0.31119,-0.88664 0.70898,-1.5391 0.85756,-1.40663 0.67751,-1.76676 -0.49817,-0.99642 -1.09208,0.71556 -2.22962,3.06956 -2.67634,5.53833 l -0.35032,1.93607 0.15803,-1.93567 c 0.0893,-1.0935 0.53731,-2.66671 1.0298,-3.61595 0.70283,-1.3547 0.76801,-1.68032 0.33631,-1.68032 -1.00862,0 -1.77408,0.66352 -2.42132,2.09883 -0.35619,0.78986 -0.71385,1.36988 -0.79481,1.28895 -0.081,-0.081 0.10263,-0.63035 0.40797,-1.22082 0.72621,-1.40432 0.70447,-1.5317 -0.23856,-1.39776 -0.55663,0.079 -1.08357,0.68492 -1.76389,2.02808 -0.53358,1.05344 -0.97014,1.7218 -0.97014,1.48527 0,-0.23657 0.32072,-1.05879 0.71272,-1.82716 0.392,-0.76838 0.59044,-1.39489 0.44098,-1.39224 -1.0969,0.0193 -1.86103,0.58952 -2.40392,1.79342 -0.34324,0.76118 -0.69031,1.31771 -0.77127,1.23675 -0.081,-0.081 0.10263,-0.63032 0.40797,-1.22079 0.71804,-1.38853 0.71627,-1.39438 -0.36093,-1.18846 -0.52856,0.10105 -1.19958,0.64 -1.58618,1.274 -0.70043,1.14866 -0.94083,1.02431 -0.30752,-0.15904 0.31357,-0.58592 0.24635,-0.68236 -0.47558,-0.68236 -0.64003,0 -0.99311,0.33779 -1.47873,1.4147 -0.35087,0.77808 -0.70418,1.34847 -0.78515,1.26751 -0.081,-0.081 0.10263,-0.63032 0.40798,-1.22081 0.71683,-1.38618 0.71459,-1.39404 -0.34081,-1.1923 -0.57652,0.11023 -1.137,0.62738 -1.57191,1.4504 -0.37175,0.7035 -0.68293,1.15215 -0.69151,0.997 -0.009,-0.15515 0.22661,-0.75046 0.52264,-1.32292 l 0.53822,-1.04081 h -1.06022 c -0.88107,0 -1.18139,0.23751 -1.77732,1.40562 -0.3944,0.77311 -0.85794,2.00343 -1.03007,2.73405 -0.2344,0.99494 -0.32099,1.10699 -0.34495,0.44645 -0.0176,-0.48508 0.35603,-1.7154 0.83027,-2.73404 l 0.86227,-1.85208 h -1.03534 c -0.87753,0 -1.16829,0.2554 -1.90762,1.67571 -0.47976,0.92162 -0.87405,1.51693 -0.87621,1.32291 -0.002,-0.19404 0.22295,-0.74967 0.50024,-1.23473 0.27729,-0.48506 0.50979,-1.01822 0.51667,-1.18477 0.0191,-0.46358 -1.89071,0.11678 -2.20169,0.66905 -0.15065,0.26752 -0.46815,0.41333 -0.70556,0.32398 -0.53433,-0.20108 -2.72469,1.1 -2.72469,1.61848 0,0.20834 -0.1358,0.29485 -0.30178,0.19228 -0.16598,-0.10258 -0.92004,0.33662 -1.6757,0.97599 -0.75565,0.63939 -1.88985,1.46254 -2.52044,1.82925 -0.92668,0.5389 -1.15666,0.90583 -1.19939,1.9136 -0.0452,1.06661 -0.0741,1.10662 -0.19982,0.27673 -0.1714,-1.13147 -0.45044,-1.19806 -1.47793,-0.35277 -0.65179,0.5362 -0.70409,0.77658 -0.39789,1.82869 0.1939,0.66625 0.27699,1.28694 0.18464,1.37927 -0.0923,0.0923 -0.26889,-0.337 -0.39231,-0.95411 -0.27592,-1.37956 -0.60702,-1.60901 -1.57469,-1.09111 -0.60054,0.32138 -0.71162,0.62412 -0.556117,1.51561 0.186449,1.06891 0.178025,1.07831 -0.208124,0.23206 -0.22134,-0.48508 -0.430101,-0.92757 -0.463915,-0.98335 -0.03381,-0.0558 -0.47171,0.0855 -0.973108,0.31396 -0.893789,0.40725 -0.901282,0.44029 -0.382829,1.68891 0.290844,0.70043 0.926402,1.87709 1.412352,2.61477 0.719648,1.09247 1.027604,1.29702 1.660161,1.10271 0.42713,-0.13121 0.82274,-0.27818 0.87914,-0.32666 z m 6.82753,-2.20548 c -0.38496,-0.89961 -0.37625,-0.92036 0.11976,-0.28536 0.29419,0.37664 0.5349,0.8132 0.5349,0.97015 0,0.53618 -0.2393,0.28586 -0.65466,-0.68479 z m -1.12783,-2.07741 c -0.19465,-0.51196 -0.28845,-0.99634 -0.20845,-1.07635 0.08,-0.08 0.31432,0.33891 0.52069,0.93089 0.45875,1.31598 0.18183,1.44499 -0.31224,0.14546 z m 9.76357,-1.37583 c -0.34042,-0.88712 -0.24,-1.11601 0.17587,-0.40087 0.20591,0.35412 0.30007,0.71813 0.20925,0.80896 -0.0908,0.0908 -0.26414,-0.0928 -0.38512,-0.40809 z m -10.39482,-0.86828 c 0,-0.48509 0.0801,-0.68353 0.17793,-0.44098 0.0979,0.24254 0.0979,0.63942 0,0.88193 -0.0979,0.24255 -0.17793,0.0441 -0.17793,-0.44095 z m 9.87778,-1.05834 c 0,-0.48508 0.0801,-0.68352 0.17793,-0.44098 0.0979,0.24255 0.0979,0.63942 0,0.88194 -0.0979,0.24254 -0.17793,0.0441 -0.17793,-0.44096 z m -7.72073,-1.05833 c 0,-0.87312 0.0688,-1.23031 0.15288,-0.79375 0.0841,0.43656 0.0841,1.15094 0,1.5875 -0.0841,0.43656 -0.15288,0.0794 -0.15288,-0.79375 z m 4.8676,-0.20579 c 0.0136,-0.95398 0.15514,-2.052 0.31446,-2.44004 0.17009,-0.41431 0.21296,0.24103 0.10384,1.5875 -0.22476,2.7737 -0.4524,3.23765 -0.4183,0.85254 z m 12.34097,0.29398 c -0.20206,-0.72761 -0.34961,-1.79917 -0.32786,-2.38125 0.0293,-0.78455 0.11132,-0.63294 0.31707,0.58597 0.15265,0.90437 0.3828,1.97593 0.51145,2.38125 0.12864,0.40531 0.15128,0.73694 0.0503,0.73694 -0.10096,0 -0.3489,-0.59531 -0.55097,-1.32291 z m -19.70533,0.0882 c 0.007,-0.58208 0.0862,-0.7775 0.1757,-0.43426 0.0894,0.34325 0.0836,0.8195 -0.0131,1.05833 -0.0966,0.23884 -0.16982,-0.042 -0.16263,-0.62407 z m 17.44335,0.10218 c -0.11901,-0.44426 -0.19601,-1.60147 -0.17111,-2.57161 0.0414,-1.61312 0.0673,-1.55282 0.30297,0.70556 0.27132,2.5999 0.22819,3.21016 -0.13186,1.86605 z m -4.71122,-1.16051 c 0.003,-0.97012 0.0712,-1.32514 0.15224,-0.78888 0.0811,0.53623 0.0789,1.32998 -0.005,1.76387 -0.0837,0.43389 -0.15008,-0.005 -0.14743,-0.97499 z m 16.34684,-0.0135 c -0.12098,-0.31528 -0.2099,-0.7587 -0.1976,-0.98537 0.0123,-0.22664 0.17446,-0.0319 0.36035,0.43286 0.1859,0.46474 0.27482,0.90813 0.19761,0.98536 -0.0772,0.0772 -0.23937,-0.11758 -0.36036,-0.43285 z m -4.77822,-0.36854 c 0.0169,-0.41095 0.10052,-0.49456 0.21313,-0.21312 0.10191,0.25466 0.0894,0.55893 -0.0279,0.67614 -0.11722,0.11723 -0.2006,-0.0911 -0.18528,-0.46302 z m -9.525,-0.35277 c 0.0169,-0.41098 0.10052,-0.49456 0.21313,-0.21315 0.10191,0.25466 0.0894,0.55893 -0.0279,0.67617 -0.11723,0.11721 -0.2006,-0.0912 -0.18528,-0.46302 z m 7.1286,-1.02894 c 0.003,-0.97015 0.0712,-1.32514 0.15225,-0.78891 0.0811,0.53626 0.0789,1.33001 -0.005,1.7639 -0.0837,0.43389 -0.15008,-0.005 -0.14743,-0.97499 z m -19.12305,0.32337 c 0.0169,-0.41095 0.10052,-0.49456 0.21314,-0.21312 0.1019,0.25466 0.0894,0.55893 -0.0279,0.67614 -0.11723,0.11724 -0.20061,-0.0911 -0.18529,-0.46302 z m 2.46945,0 c 0.0169,-0.41095 0.10052,-0.49456 0.21313,-0.21312 0.10191,0.25466 0.0894,0.55893 -0.0279,0.67614 -0.11723,0.11724 -0.2006,-0.0911 -0.18528,-0.46302 z m 9.90562,-0.85254 c 0,-0.48506 0.0801,-0.68349 0.17794,-0.44098 0.0979,0.24255 0.0979,0.63942 0,0.88196 -0.0979,0.24252 -0.17794,0.0441 -0.17794,-0.44098 z m 8.81945,0 c 0,-0.48506 0.0801,-0.68349 0.17793,-0.44098 0.0979,0.24255 0.0979,0.63942 0,0.88196 -0.0979,0.24252 -0.17793,0.0441 -0.17793,-0.44098 z m 4.62649,-0.70556 c 0,-0.87313 0.0688,-1.23031 0.15288,-0.79375 0.0841,0.43656 0.0841,1.15094 0,1.5875 -0.0841,0.43656 -0.15288,0.0794 -0.15288,-0.79375 z m -15.59045,0.49977 c 0.0169,-0.41095 0.10052,-0.49456 0.21313,-0.21312 0.10191,0.25466 0.0894,0.55893 -0.0279,0.67614 -0.11722,0.11724 -0.2006,-0.0911 -0.18528,-0.46302 z m -7.42538,0.0294 c 0,-0.19402 0.15388,-0.5909 0.34197,-0.88194 0.18808,-0.29104 0.34197,-0.37042 0.34197,-0.1764 0,0.19405 -0.15389,0.59092 -0.34197,0.88196 -0.18809,0.29105 -0.34197,0.37042 -0.34197,0.17638 z m 14.12815,-0.73496 c 0.0169,-0.41095 0.10052,-0.49456 0.21314,-0.21313 0.10191,0.25467 0.0894,0.55894 -0.0279,0.67615 -0.11723,0.11723 -0.2006,-0.0911 -0.18529,-0.46302 z m 4.58612,-0.70554 c 0.0169,-0.41098 0.10052,-0.49456 0.21313,-0.21315 0.10191,0.25466 0.0894,0.55893 -0.0279,0.67617 -0.11722,0.11721 -0.2006,-0.0911 -0.18528,-0.46302 z m 1.6287,13.61133 c 0.8756,0 -4.20139,-4.55369 -5.09614,-4.57086 -0.43656,-0.008 -0.79375,0.14263 -0.79375,0.33562 0,0.65283 4.35427,4.61711 4.85873,4.42352 0.26985,-0.10356 0.73388,-0.18828 1.03116,-0.18828 z m -53.250307,-0.99198 c 0.297003,-0.37311 0.440973,-0.40878 0.440973,-0.10924 0,0.84013 1.579674,0.27455 1.704941,-0.61042 0.11218,-0.79254 0.04896,-0.81855 -1.411111,-0.58106 -0.840705,0.13677 -1.666959,0.37865 -1.836123,0.53756 -0.169164,0.15888 -0.513948,0.20971 -0.766186,0.11292 -0.638696,-0.24511 -1.924854,0.50242 -1.924854,1.11871 0,0.69615 3.177788,0.30359 3.79236,-0.46847 z m 55.721187,0.35933 c 0.28193,-0.1792 -0.2111,-0.75988 -1.47643,-1.73892 -1.04484,-0.80843 -2.08668,-1.83586 -2.3152,-2.28319 -0.28053,-0.54909 0.0271,-0.36759 0.94703,0.55877 0.74939,0.75462 1.88506,1.77062 2.52373,2.25774 1.12276,0.85638 1.22547,0.87027 3.10348,0.41974 1.06825,-0.25628 2.00915,-0.57415 2.09087,-0.70639 0.0817,-0.13224 -0.64702,-0.75596 -1.61945,-1.38607 -0.97242,-0.63013 -2.10842,-1.60605 -2.52443,-2.16874 -0.79844,-1.07995 -1.18738,-1.21367 -2.01213,-0.69178 -0.68082,0.43083 -0.1411,1.07699 2.57376,3.08134 1.13701,0.83945 1.95526,1.52628 1.81835,1.52628 -0.43887,0 -2.42935,-1.47767 -3.9719,-2.9486 -1.43658,-1.36991 -1.54503,-1.41065 -2.67088,-1.00354 -0.64542,0.23339 -1.43067,0.42434 -1.74499,0.42434 -0.91201,0 -1.08967,0.68845 -0.38311,1.48453 1.16846,1.31646 4.05248,3.4545 4.65235,3.44897 0.32212,-0.003 0.77615,-0.12649 1.00895,-0.27448 z m -51.463319,-1.39583 c 0.09181,-0.64646 -0.05548,-0.79375 -0.79375,-0.79375 -0.738269,0 -0.906478,0.16822 -0.906478,0.90649 0,0.73826 0.147291,0.88556 0.79375,0.79375 0.510101,-0.0725 0.834033,-0.39638 0.906478,-0.90649 z m 2.032791,0.26458 c 0.30443,0 0.500314,-0.36139 0.500314,-0.92308 0,-0.78512 -0.118639,-0.8913 -0.79375,-0.71038 -0.436562,0.117 -0.912812,0.2149 -1.058333,0.21754 -0.145521,0.003 -0.264584,0.41868 -0.264584,0.92451 0,0.69369 0.137118,0.86707 0.55802,0.70554 0.306909,-0.11777 0.783159,-0.21413 1.058333,-0.21413 z m 2.556902,-1.54784 c 0.09454,-0.82798 0.0066,-0.97655 -0.469826,-0.79375 -0.322374,0.12372 -0.731901,0.22492 -0.910061,0.22492 -0.178157,0 -0.323924,0.40791 -0.323924,0.90649 0,0.73827 0.147291,0.88556 0.79375,0.79375 0.579244,-0.0823 0.825182,-0.38801 0.910061,-1.13141 z m 2.794106,0.11486 c 1.30928,-0.36211 1.499306,-0.54015 1.499306,-1.40483 v -0.99015 l -1.852083,0.64968 c -1.547051,0.54269 -1.871081,0.80616 -1.967421,1.59964 -0.08261,0.68038 0.01752,0.89469 0.352777,0.75515 0.257463,-0.10715 1.142802,-0.38142 1.967421,-0.60949 z m 51.14694,0.44024 c 0.29126,-0.185 -0.32073,-0.77335 -1.85082,-1.77932 -1.25728,-0.82662 -2.46998,-1.85074 -2.6949,-2.27584 -0.25953,-0.49052 0.17833,-0.23429 1.19839,0.70133 2.22416,2.03999 4.29929,3.06755 5.21027,2.58 0.3853,-0.20619 0.70054,-0.44548 0.70054,-0.53173 0,-0.0862 -0.67469,-0.49668 -1.49931,-0.91207 -0.82462,-0.4154 -2.15652,-1.28805 -2.95979,-1.93924 l -1.4605,-1.18401 -1.62631,0.55414 c -0.89447,0.30478 -1.62631,0.67741 -1.62631,0.82807 0,0.39015 2.45419,2.72108 3.70652,3.52033 1.13211,0.72255 2.2007,0.88392 2.90222,0.43834 z M 43.840807,158.3224 c 1.758323,-0.65789 1.953511,-0.83413 1.953511,-1.7639 0,-1.18078 -0.07786,-1.21198 -1.35668,-0.54358 -0.515006,0.26916 -1.372939,0.66264 -1.906513,0.87439 -0.700043,0.27779 -0.97014,0.63262 -0.97014,1.27447 0,1.06947 -0.13044,1.0604 2.279822,0.15862 z m 54.330585,-1.51241 c 10.429868,-4.94067 18.049848,-13.24454 21.674168,-23.61941 1.18626,-3.39574 2.50895,-9.36621 2.48885,-11.23437 -0.0147,-1.36678 -1.67555,-3.66593 -2.01295,-2.78657 -1.04729,2.72953 -3.63886,7.08502 -5.25317,8.82867 -2.1597,2.33273 -4.15494,3.42454 -9.935,5.43643 -2.89181,1.00658 -4.31826,1.7893 -7.886728,4.32766 -5.03644,3.58256 -8.64146,7.02908 -9.75205,9.32325 -0.89881,1.85669 -1.02281,4.47977 -0.2789,5.89973 0.99024,1.89019 5.52862,5.34035 7.04483,5.35565 0.36561,0.004 2.12553,-0.68527 3.91095,-1.53104 z m 20.388188,-31.17096 c 0.53625,-0.0811 1.33,-0.0789 1.76389,0.005 0.4339,0.0837 -0.005,0.15008 -0.97499,0.14743 -0.97014,-0.003 -1.32514,-0.0712 -0.7889,-0.15225 z m -71.330958,31.28505 c 0.474406,-0.2539 0.682363,-0.74018 0.682363,-1.59563 v -1.23044 l -0.881944,0.57788 c -0.603406,0.39536 -0.881946,0.89929 -0.881946,1.59562 0,1.12646 0.09215,1.18208 1.081527,0.65257 z m 2.25326,-1.10255 c 0.66229,-0.30176 0.90952,-0.69599 0.94029,-1.49931 l 0.0417,-1.0899 0.22285,1.01875 0.22285,1.01873 1.13414,-1.06051 c 0.62378,-0.5833 1.20867,-0.98599 1.29975,-0.89492 0.30201,0.30202 2.68087,-1.74279 2.70923,-2.32879 0.0174,-0.36009 0.094,-0.41177 0.2046,-0.13808 0.28228,0.69858 2.49243,-1.20105 3.82986,-3.29179 0.64779,-1.01267 2.07118,-2.73457 3.16307,-3.82648 1.80091,-1.80092 1.8934,-1.96461 0.99592,-1.76271 -0.94148,0.2118 -5.19002,4.18753 -6.57255,6.15053 -0.56984,0.80907 -0.56888,0.78425 0.0116,-0.30065 0.34801,-0.65042 1.45246,-2.03948 2.45435,-3.08681 1.00188,-1.0473 1.70765,-1.90421 1.56837,-1.90421 -0.69871,0 -3.60981,2.22369 -5.12174,3.91234 -0.93983,1.04966 -1.58718,1.67037 -1.43855,1.37933 0.14863,-0.29104 -0.70444,0.41836 -1.8957,1.57644 -1.23695,1.20251 -2.16826,2.413 -2.17134,2.82223 -0.004,0.55539 -0.076,0.6051 -0.31918,0.22098 -0.54761,-0.86497 -2.45418,0.94126 -2.478123,2.3477 -0.02207,1.29694 -0.02545,1.29485 1.198603,0.73713 z m 3.75637,-3.47115 c -0.0223,-0.58711 1.24041,-3.52777 1.51482,-3.52777 0.0956,0 -0.11619,0.67469 -0.47061,1.49929 -0.35442,0.82463 -0.72984,1.73744 -0.83425,2.02848 -0.16876,0.47038 -0.19209,0.47038 -0.20996,0 z m 9.97384,-5.80207 c 0.32571,-0.4971 1.47868,-1.77625 2.56215,-2.84255 1.94838,-1.91752 1.95879,-1.93871 0.95151,-1.93871 -0.79285,0 -1.53255,0.52739 -3.33973,2.38125 -2.28937,2.34847 -3.48059,3.85683 -3.48059,4.40719 0,0.54002 2.71914,-1.11053 3.30666,-2.00718 z m 4.31016,-2.19059 c 2.33567,-2.4189 2.43903,-2.59067 1.55892,-2.59067 -0.70859,0 -1.5705,0.64754 -3.47168,2.60824 -1.39098,1.43451 -2.52906,2.70756 -2.52906,2.82892 0,0.12139 0.43656,0.11351 0.97014,-0.0175 0.5437,-0.13354 2.06971,-1.37703 3.47168,-2.82893 z m 2.7467,-0.32711 c 2.0509,-2.21178 2.30474,-2.61633 1.64164,-2.61633 -0.82363,0 -2.97668,1.73445 -4.92653,3.96875 l -1.1545,1.32292 1.00668,-0.0295 c 0.78059,-0.0228 1.55155,-0.61709 3.43271,-2.64584 z m 1.29994,1.05873 c 0.66619,-0.88913 1.92601,-2.18889 2.79959,-2.88837 1.21093,-0.96962 0.95965,-0.60997 -1.0575,1.51352 -2.22172,2.33886 -2.53405,2.80845 -1.9485,2.92965 0.49682,0.10282 1.20688,-0.41984 2.46945,-1.81774 0.97466,-1.07913 2.48648,-2.55045 3.35961,-3.26961 1.51807,-1.2504 1.54121,-1.29678 0.52917,-1.0604 -1.61474,0.37716 -2.39175,0.50353 -3.29373,0.5357 -0.81255,0.029 -5.05371,3.75933 -5.74886,5.05648 -0.27917,0.52094 -0.17384,0.61738 0.67433,0.61738 0.7826,0 1.27339,-0.35798 2.21644,-1.61661 z m 4.32386,-0.41918 c 0.73322,-0.92567 2.18958,-2.38982 3.23637,-3.25366 1.04679,-0.86386 1.85483,-1.61909 1.79565,-1.67827 -0.4979,-0.4979 -4.6135,2.66176 -6.8931,5.29201 -1.13137,1.3054 -1.13547,1.32291 -0.3093,1.32291 0.57786,0 1.25027,-0.52141 2.17038,-1.68299 z m 4.09284,-2.16939 c 2.64183,-2.64184 3.25296,-3.41363 2.4933,-3.14881 -1.03909,0.36224 -7.05124,5.75725 -7.05124,6.32746 0,0.94845 1.42372,-0.0444 4.55794,-3.17865 z m 0.55734,1.32625 c 0.58208,-0.77846 1.85208,-2.07886 2.82222,-2.88976 3.19313,-2.66903 3.2153,-2.56103 0.0877,0.42723 -1.69748,1.62184 -3.08632,3.09028 -3.08632,3.26318 0,0.8835 1.37745,0.0742 3.30788,-1.94339 1.18809,-1.24177 3.00787,-2.90864 4.04394,-3.70417 1.82615,-1.40215 1.85511,-1.91031 0.0565,-0.99152 -0.48507,0.24778 -1.34058,0.48498 -1.90114,0.5271 -1.17018,0.0879 -5.07461,3.12658 -6.83984,5.32318 -1.35197,1.68233 -1.36813,1.75567 -0.34304,1.55721 0.43656,-0.0845 1.27,-0.79061 1.85208,-1.56906 z m 5.68823,-1.72278 c 1.12645,-1.17274 2.90556,-2.79377 3.95357,-3.60231 1.04801,-0.80854 1.7276,-1.52934 1.5102,-1.60181 -0.59196,-0.19733 -4.51707,2.75127 -6.90762,5.18911 -1.73156,1.76581 -1.97227,2.14726 -1.35494,2.14726 0.45702,0 1.55188,-0.8341 2.79879,-2.13225 z m 2.59946,-0.74142 c 1.25975,-1.1919 3.40288,-2.95809 4.7625,-3.92491 1.94321,-1.38179 2.24563,-1.70571 1.4137,-1.51429 -1.2686,0.29194 -2.93959,1.40753 -6.068,4.05114 -2.58237,2.18221 -3.69659,3.55653 -2.88267,3.55563 0.2662,-2.6e-4 1.51471,-0.9757 2.77447,-2.16757 z m 0.74369,1.0513 c 0.65955,-0.22622 1.99292,-1.07572 2.96306,-1.88781 0.97014,-0.81206 3.08137,-2.39191 4.69161,-3.51075 1.61025,-1.11885 2.856588,-2.10543 2.76964,-2.19237 -0.80017,-0.80015 -7.26989,3.16434 -10.44733,6.40191 -1.72104,1.75361 -1.72039,1.78695 0.023,1.18902 z M 122.52348,117.0726 c 0.11992,-0.19403 0.0499,-0.35278 -0.15557,-0.35278 -0.20547,0 -0.37359,-0.23812 -0.37359,-0.52916 0,-0.29104 -0.15875,-0.52917 -0.35278,-0.52917 -0.19403,0 -0.35278,0.14577 -0.35278,0.32393 0,0.17816 -0.0964,0.57503 -0.21413,0.88194 -0.1523,0.3969 -0.006,0.55802 0.50835,0.55802 0.39736,0 0.82059,-0.15875 0.9405,-0.35278 z m 63.30319,-2.26845 c 0.33438,-0.40293 0.27668,-0.58059 -0.28649,-0.882 -1.15453,-0.61788 -3.07808,0.35343 -2.28012,1.15138 0.42534,0.42534 2.13934,0.24545 2.56661,-0.26938 z m -52.10251,16.46796 c 5.57831,-0.0546 14.70644,-0.0546 20.28473,0 5.57829,0.0546 1.01422,0.0992 -10.14235,0.0992 -11.15661,0 -15.72066,-0.0447 -10.14238,-0.0992 z m 3.175,-1.76387 c 5.57831,-0.0546 14.70644,-0.0546 20.28473,0 5.57829,0.0546 1.01422,0.0992 -10.14235,0.0992 -11.15661,0 -15.72067,-0.0447 -10.14238,-0.0992 z m 34.23557,0.002 c 1.5126,-0.0663 3.89385,-0.0659 5.29167,7.9e-4 1.39784,0.0668 0.16026,0.12102 -2.75016,0.12053 -2.91042,-5.3e-4 -4.05408,-0.0551 -2.54151,-0.12143 z m 10.39082,0.004 c 0.82463,-0.0743 2.17401,-0.0743 2.99861,0 0.82462,0.0743 0.14994,0.13504 -1.49929,0.13504 -1.64926,0 -2.32394,-0.0608 -1.49932,-0.13504 z m -37.72204,-1.77 c 5.68918,-0.0545 14.89668,-0.0545 20.46113,9e-5 5.56443,0.0546 0.90966,0.0992 -10.34394,0.0991 -11.25363,-5e-5 -15.80634,-0.0447 -10.11719,-0.0992 z m 35.95815,10e-4 c 2.18281,-0.0619 5.75468,-0.0619 7.9375,0 2.18281,0.0619 0.39687,0.11253 -3.96875,0.11253 -4.36563,0 -6.15157,-0.0506 -3.96875,-0.11253 z M 22.510985,125.55131 c 8.406056,-0.18334 8.696259,-0.21386 10.583333,-1.11306 1.067152,-0.50851 2.396326,-1.41066 2.953719,-2.00478 0.671636,-0.7159 1.504513,-1.16131 2.469446,-1.32062 1.091067,-0.18014 1.837994,-0.63621 2.980063,-1.81961 1.882156,-1.95028 2.496634,-1.85451 4.487695,0.69946 0.894652,1.14759 2.471391,2.48821 4.233331,3.5994 l 2.80769,1.7707 31.22084,0.18017 c 26.208188,0.15125 23.064668,0.18152 -19.57917,0.18851 -27.940004,0.005 -46.910628,-0.0765 -42.156947,-0.18017 z m 118.472045,0.0761 c 9.95873,-0.0521 26.15123,-0.0521 35.98333,3e-5 9.8321,0.0521 1.68405,0.0947 -18.10679,0.0947 -19.79083,-2e-5 -27.83525,-0.0426 -17.87654,-0.0947 z M 92.713762,115.32255 c -0.98013,-0.19526 -1.10634,-0.30299 -0.61209,-0.52249 0.34245,-0.15208 0.95736,-0.18898 1.36647,-0.082 0.45258,0.11835 1.13121,-0.0919 1.73315,-0.53692 0.67721,-0.50068 1.19212,-0.64121 1.63215,-0.44546 0.59027,0.2626 0.58095,0.29693 -0.11409,0.42001 -0.4163,0.0737 -1.03621,0.44265 -1.37759,0.81987 -0.65688,0.72584 -0.69863,0.73135 -2.628,0.34699 z m 58.913878,-8.97201 c 0,-8.9344 0.0156,-9.03358 1.42481,-9.03358 0.16983,0 0.80502,1.62719 1.41149,3.61598 2.95754,9.69805 2.84512,9.39998 3.45956,9.17381 0.9044,-0.33291 1.10125,-0.82797 1.10707,-2.78455 0.006,-2.02286 -0.27672,-1.8487 3.96277,-2.44106 0.91538,-0.1279 1.83743,-0.4411 2.04896,-0.696 0.35571,-0.42858 0.15391,-2.51635 -0.55303,-5.72165 -0.0963,-0.43656 -0.0389,-0.79375 0.12761,-0.79375 0.1665,0 0.50178,1.33806 0.74509,2.97345 0.2898,1.94799 0.61818,3.04091 0.95211,3.16906 0.81404,0.31238 0.94472,-0.66098 0.49847,-3.71288 -0.22931,-1.56823 -0.34441,-2.92384 -0.25577,-3.01248 0.16206,-0.16205 0.94586,3.88129 0.94586,4.8793 0,0.29396 0.30633,0.88768 0.68072,1.31936 0.69265,0.79863 1.44684,0.82394 4.9916,0.16755 0.84648,-0.15675 0.9553,-0.0182 1.56353,1.99066 l 0.65373,2.15913 1.75075,-0.11588 1.75075,-0.11588 0.64206,2.29306 c 0.35314,1.26118 0.64765,2.38285 0.65447,2.49261 0.0143,0.2285 -4.90701,0.76597 -16.03901,1.75172 -10.35812,0.91723 -9.80453,0.93831 -9.55302,-0.36378 0.11242,-0.58208 0.29641,-1.53458 0.40883,-2.11666 0.14108,-0.73032 0.41098,-1.05834 0.87088,-1.05834 0.44746,0 0.59973,-0.17387 0.46339,-0.52916 -0.244,-0.63585 -0.83452,-0.66277 -2.64427,-0.12055 l -1.36385,0.40862 v 2.4136 c 0,1.37388 -0.15197,2.4136 -0.35279,2.4136 -0.22553,0 -0.35277,-3.10362 -0.35277,-8.60531 z m 18.13311,4.54836 c 3.66731,-0.48507 6.882,-0.88193 7.14375,-0.88193 0.26175,0 0.47591,-0.23813 0.47591,-0.52917 0,-0.6815 -0.24215,-0.66782 -8.26154,0.46682 -4.30675,0.60935 -6.72592,1.1007 -6.82035,1.38526 -0.19161,0.57736 -0.2736,0.58221 7.46223,-0.44098 z m -14.07753,-2.70994 c 0.12261,-0.13039 -1.09892,-4.15238 -1.33188,-4.38533 -0.086,-0.086 -0.57529,0.003 -1.08728,0.19751 -0.88321,0.3358 -0.93086,0.47993 -0.93086,2.81522 v 2.4613 l 1.62222,-0.48822 c 0.89222,-0.26851 1.66973,-0.53874 1.7278,-0.60048 z m 13.14233,-1.5666 c 3.76217,-0.52144 4.32152,-0.68384 4.32152,-1.25474 0,-0.49919 -0.18949,-0.61199 -0.79375,-0.47242 -0.78779,0.18197 -9.61088,1.59399 -9.96013,1.59399 -0.10022,0 -0.18222,0.25579 -0.18222,0.56842 0,0.44763 0.24366,0.52543 1.14652,0.36608 0.63061,-0.1113 3.09123,-0.4719 5.46806,-0.80133 z m -14.78073,-3.85831 c 0.18018,-0.15923 -1.03635,-3.79845 -1.40221,-4.19472 -0.17974,-0.19467 -0.30941,0.73943 -0.30941,2.22863 0,2.49583 0.0212,2.55731 0.79375,2.31979 0.43656,-0.1342 0.84961,-0.29336 0.91787,-0.3537 z m -78.007198,10.17049 c -1.66615,-0.17387 -1.37383,-0.79701 0.38099,-0.81213 0.71615,-0.006 1.61025,-0.24429 1.98688,-0.52917 1.31769,-0.99664 1.78365,-0.53986 0.53661,0.52605 -0.67176,0.5742 -1.30077,1.02376 -1.39778,0.99903 -0.097,-0.0247 -0.77503,-0.10743 -1.5067,-0.18378 z m 10.85531,-0.0812 c -1.08501,-0.18341 -1.26708,-0.30337 -0.78787,-0.51911 0.34279,-0.15431 1.01348,-0.20597 1.49044,-0.1148 0.55958,0.10697 1.07744,-0.0665 1.4599,-0.48916 0.32599,-0.36022 0.9193,-0.65494 1.31846,-0.65494 0.62082,0 0.54916,0.15094 -0.49565,1.04399 -0.67176,0.5742 -1.30077,1.02792 -1.39778,1.00828 -0.097,-0.0197 -0.81139,-0.14307 -1.5875,-0.27426 z m 7.82054,-4.29181 c -0.35536,-0.20662 -0.95068,-0.29603 -1.32291,-0.19868 -0.37224,0.0973 -0.6768,0.0501 -0.6768,-0.10503 0,-0.43765 1.08566,-0.74914 1.80989,-0.51928 0.35868,0.11384 1.00664,-0.0413 1.4399,-0.34478 0.43327,-0.30347 1.10962,-0.55117 1.50301,-0.55044 0.5741,10e-4 0.48899,0.13927 -0.43127,0.70037 -0.63059,0.38447 -1.14653,0.86013 -1.14653,1.05701 0,0.4513 -0.3519,0.43958 -1.17529,-0.0392 z m -9.75579,-1.42057 c -0.4823,-0.18577 -1.15699,-0.26452 -1.49931,-0.175 -0.34231,0.0895 -0.62239,0.0296 -0.62239,-0.13322 0,-0.45701 1.25557,-0.74878 2.20104,-0.51148 0.55252,0.13867 1.01019,0.0202 1.30792,-0.33853 0.2519,-0.30352 0.87512,-0.54178 1.38493,-0.52948 l 0.92695,0.0224 -0.88195,0.34606 c -0.48507,0.19033 -1.12007,0.64103 -1.41111,1.00155 -0.42085,0.52133 -0.70866,0.58636 -1.40608,0.31774 z m -10.27176,-0.38139 c -0.45964,-0.17003 -1.12485,-0.23353 -1.47825,-0.14112 -0.39166,0.10242 -0.58542,0.007 -0.49625,-0.24519 0.0855,-0.24147 0.75364,-0.38545 1.60765,-0.34642 0.80375,0.0367 1.46136,-0.0568 1.46136,-0.20795 0,-0.50121 1.62973,-1.04207 2.14915,-0.71324 0.39802,0.25197 0.37087,0.3155 -0.13671,0.31983 -0.34837,0.003 -1.00192,0.37392 -1.45232,0.82432 -0.64727,0.64727 -0.99409,0.75412 -1.65463,0.50977 z m 6.0334,-4.46421 c -1.44873,-0.25863 -0.90397,-0.85602 0.63354,-0.69475 0.53369,0.056 1.35918,-0.17055 1.8344,-0.50341 0.9632,-0.67465 1.76539,-0.78935 1.76539,-0.25243 0,0.19403 -0.21352,0.35278 -0.47449,0.35278 -0.26097,0 -0.76182,0.3175 -1.11301,0.70556 -0.35119,0.38805 -0.81235,0.68466 -1.02481,0.65911 -0.21247,-0.0255 -0.94193,-0.14563 -1.62102,-0.26686 z m 19.319018,-4.11949 c -1.211338,-0.65726 -2.032908,-2.211221 -2.032908,-3.845147 0,-0.939861 0.30498,-1.590215 1.20761,-2.575158 1.095248,-1.195123 1.376788,-1.317736 3.025718,-1.317736 1.64894,0 1.93047,0.122613 3.02572,1.317736 1.36472,1.489173 1.5871,3.098739 0.67248,4.867425 -0.99772,1.92938 -3.83037,2.6751 -5.89862,1.55288 z m 3.93214,-0.66585 c 3.06191,-1.583376 1.71993,-6.350598 -1.78771,-6.350598 -1.16436,0 -1.61565,0.210775 -2.449548,1.144074 -2.6598,2.976829 0.660208,7.056294 4.237258,5.206524 z"
       id="path1" />
  </g>
</svg>
